<?xml version="1.0" standalone="no"?>
<!DOCTYPE svg PUBLIC "-//W3C//DTD SVG 20010904//EN"
 "http://www.w3.org/TR/2001/REC-SVG-20010904/DTD/svg10.dtd">
<svg version="1.0" xmlns="http://www.w3.org/2000/svg"
 width="11097.000000pt" height="9046.000000pt" viewBox="0 0 11097.000000 9046.000000"
 preserveAspectRatio="xMidYMid meet">

<g transform="translate(0.000000,9046.000000) scale(0.100000,-0.100000)"
fill="#000000" stroke="none">
<path d="M65290 84443 c-32 -12 -61 -49 -75 -98 -14 -48 -195 -1145 -195
-1181 0 -15 8 -16 66 -11 37 4 68 8 70 9 1 2 13 73 26 158 l24 155 155 3 155
2 23 -132 c13 -73 25 -143 28 -155 5 -21 11 -23 80 -23 l76 0 -6 28 c-3 15
-54 303 -113 640 l-108 612 -95 -1 c-53 0 -103 -3 -111 -6z m200 -80 c6 -38
55 -315 109 -618 l97 -550 -49 -3 c-27 -2 -52 -1 -55 2 -2 3 -17 74 -31 158
l-27 153 -170 -4 c-93 -1 -171 -5 -173 -7 -2 -2 -14 -72 -28 -156 -13 -83 -24
-152 -26 -154 -1 -1 -24 -5 -50 -8 l-49 -8 6 29 c3 15 44 267 91 558 47 292
92 553 100 582 23 78 48 93 155 93 l88 0 12 -67z"/>
<path d="M65310 84258 c-5 -13 -28 -142 -50 -288 -22 -146 -43 -278 -46 -295
l-5 -30 148 3 c81 2 149 5 150 6 2 2 -92 558 -102 604 -5 18 -12 22 -45 22
-32 0 -42 -4 -50 -22z m121 -273 c26 -148 48 -280 48 -292 1 -23 -1 -23 -119
-23 -102 0 -120 2 -120 16 0 18 77 517 85 552 5 18 11 23 32 20 l27 -3 47
-270z"/>
<path d="M64325 84364 c-224 -35 -272 -69 -282 -197 -6 -82 109 -896 138 -973
24 -62 73 -110 125 -120 34 -6 342 33 364 46 13 8 -11 181 -25 186 -6 3 -81
-6 -166 -20 -85 -13 -157 -21 -160 -17 -4 3 -34 199 -69 435 -43 300 -58 431
-51 436 6 3 80 17 164 29 83 13 154 24 158 27 3 2 0 43 -7 91 -8 48 -14 91
-14 96 0 9 2 9 -175 -19z m159 -21 c3 -10 8 -44 12 -75 5 -46 3 -58 -7 -59
-54 -2 -302 -48 -311 -57 -9 -9 3 -114 51 -449 35 -242 68 -444 75 -451 10
-10 43 -8 171 13 87 13 160 23 161 22 0 -1 5 -35 11 -76 7 -51 6 -74 -1 -76
-47 -14 -306 -45 -332 -40 -49 9 -90 49 -113 110 -30 80 -147 915 -137 978 8
53 48 107 93 126 28 11 245 48 295 50 17 1 28 -5 32 -16z"/>
<path d="M67707 84260 c-40 -12 -55 -27 -84 -83 -14 -28 -116 -292 -228 -588
l-202 -538 69 -11 c38 -7 71 -10 72 -9 2 2 27 69 56 149 29 80 54 146 55 148
2 2 67 -8 146 -22 79 -15 147 -26 152 -26 5 0 6 -68 2 -163 l-7 -163 73 -11
c40 -7 74 -11 75 -10 5 5 35 1288 30 1295 -3 5 -38 14 -78 21 -40 7 -80 14
-88 16 -8 2 -28 -1 -43 -5z m131 -32 l65 -12 -7 -185 c-3 -103 -11 -384 -17
-626 -6 -242 -13 -442 -14 -444 -2 -1 -27 0 -55 4 l-51 7 7 162 7 162 -167 29
c-100 17 -170 25 -175 19 -5 -5 -30 -68 -56 -140 -26 -72 -50 -135 -53 -141
-9 -13 -82 -4 -88 11 -4 10 340 937 399 1078 36 87 73 100 205 76z"/>
<path d="M67676 84023 c-114 -303 -193 -524 -187 -527 12 -7 280 -50 285 -45
3 2 6 146 8 319 l3 315 -41 3 -42 3 -26 -68z m89 -250 c-4 -164 -8 -299 -10
-301 -2 -2 -238 38 -242 41 -2 2 181 499 197 535 6 15 18 22 36 22 l27 0 -8
-297z"/>
<path d="M63185 84113 c-137 -42 -252 -78 -254 -79 -6 -5 41 -174 49 -179 4
-2 49 9 100 25 52 16 95 28 96 27 1 -1 68 -231 149 -512 81 -280 150 -515 153
-521 8 -14 142 23 142 38 0 6 -66 238 -146 516 -80 279 -146 511 -147 516 -2
9 8 13 121 47 57 17 72 25 68 38 -41 141 -49 161 -64 160 -10 0 -129 -35 -267
-76z m287 -11 c10 -31 18 -62 18 -67 0 -6 -38 -21 -84 -34 -46 -13 -90 -27
-97 -31 -9 -6 27 -141 138 -526 l150 -519 -27 -12 c-15 -7 -38 -15 -52 -18
-24 -6 -25 -5 -172 507 -82 282 -152 517 -157 522 -5 6 -45 -2 -100 -18 -50
-15 -93 -26 -95 -23 -3 2 -13 34 -24 70 l-18 67 36 10 c20 5 132 39 247 74
116 34 212 61 215 59 2 -2 12 -29 22 -61z"/>
<path d="M68783 84026 c-17 -8 -43 -32 -57 -53 -14 -21 -135 -279 -269 -575
l-244 -536 65 -17 c36 -9 69 -12 73 -8 4 4 35 69 68 143 33 74 64 136 69 138
11 3 281 -63 289 -72 3 -3 -2 -74 -10 -158 -9 -84 -14 -154 -12 -156 2 -2 35
-12 74 -22 58 -15 71 -15 71 -4 0 22 109 1195 115 1241 l6 42 -68 20 c-101 29
-134 33 -170 17z m140 -32 c66 -17 67 -18 67 -50 0 -37 -109 -1217 -113 -1220
-1 -1 -25 3 -54 9 -50 10 -51 12 -47 41 10 72 24 228 24 260 l0 34 -162 40
c-90 22 -166 37 -169 34 -4 -4 -35 -70 -69 -148 l-62 -141 -44 10 c-24 6 -44
14 -44 19 0 14 458 1017 486 1066 26 43 74 75 104 67 8 -1 45 -11 83 -21z"/>
<path d="M68791 83857 c-12 -15 -263 -569 -258 -572 10 -9 278 -68 283 -63 5
6 64 562 64 610 0 9 -10 20 -22 23 -13 4 -30 9 -39 11 -9 2 -21 -2 -28 -9z
m63 -26 c6 -9 -48 -578 -55 -586 -5 -4 -227 50 -234 57 -1 1 51 123 117 271
107 237 123 267 144 267 12 0 25 -4 28 -9z"/>
<path d="M69723 83759 c-42 -21 -87 -79 -111 -144 -6 -16 -68 -210 -138 -430
-105 -334 -127 -413 -131 -480 -4 -72 -3 -83 19 -114 37 -54 66 -70 209 -112
154 -46 194 -46 250 0 19 16 46 51 61 77 28 54 174 511 166 520 -6 6 -261 85
-263 81 0 -1 -11 -36 -24 -77 -13 -41 -26 -80 -28 -87 -3 -7 20 -19 59 -32 35
-10 62 -23 62 -28 -3 -19 -88 -289 -94 -295 -5 -7 -255 63 -266 75 -4 4 263
867 271 875 1 2 83 -22 181 -52 99 -30 188 -56 198 -58 16 -2 24 11 47 87 16
49 26 91 24 93 -12 12 -390 122 -418 122 -18 0 -51 -9 -74 -21z m279 -55 c100
-31 185 -58 187 -59 5 -6 -39 -145 -46 -145 -3 0 -88 25 -189 56 -100 31 -189
54 -196 52 -12 -5 -289 -864 -288 -895 0 -17 19 -25 160 -68 80 -24 129 -34
138 -28 13 7 111 300 112 330 0 7 -27 20 -60 29 -33 9 -60 19 -60 23 0 12 36
120 41 126 5 4 153 -37 215 -59 13 -5 -117 -431 -150 -496 -44 -86 -110 -120
-188 -100 -128 34 -242 75 -267 96 -42 35 -55 74 -48 147 5 58 226 786 277
912 33 80 94 133 157 135 11 0 104 -25 205 -56z"/>
<path d="M71884 83001 c-42 -19 -78 -59 -109 -120 -37 -74 -317 -817 -326
-867 -16 -87 15 -165 81 -199 35 -18 293 -115 307 -115 15 0 78 169 67 179 -5
5 -72 32 -149 61 -77 28 -143 55 -148 59 -7 7 296 808 312 824 4 4 48 -8 97
-27 49 -19 119 -46 156 -59 l67 -26 14 42 c8 23 24 65 35 93 l21 52 -151 57
c-174 67 -216 74 -274 46z m255 -62 c75 -29 137 -53 138 -54 2 -1 -44 -126
-52 -142 -1 -2 -66 22 -144 52 -79 30 -152 55 -162 55 -19 0 -22 -8 -239 -574
-80 -206 -101 -272 -93 -285 5 -9 75 -40 155 -70 l146 -55 -25 -65 c-13 -36
-28 -69 -31 -72 -8 -8 -271 92 -308 116 -65 42 -72 135 -20 276 87 238 278
726 303 771 28 51 71 91 108 101 37 10 87 -2 224 -54z"/>
<path d="M60968 82946 c-36 -30 -73 -65 -82 -78 -27 -38 -20 -87 27 -175 62
-120 561 -992 567 -993 3 0 29 20 57 45 l52 45 -80 136 c-75 127 -79 138 -64
154 25 28 215 185 221 183 3 -1 57 -47 120 -102 l116 -101 26 20 c15 11 42 32
61 48 l34 29 -488 421 c-269 232 -491 422 -495 422 -3 0 -36 -24 -72 -54z
m543 -377 c255 -220 465 -404 467 -408 1 -5 -14 -23 -34 -40 -42 -38 -29 -44
-172 82 -55 48 -104 87 -109 87 -7 0 -184 -146 -261 -215 -2 -2 33 -66 77
-142 l81 -138 -37 -32 c-21 -17 -38 -31 -39 -30 -22 28 -571 1003 -582 1033
-12 32 -14 51 -7 71 9 25 125 133 144 133 4 0 217 -180 472 -401z"/>
<path d="M61052 82794 c-52 -36 -53 -35 114 -324 l156 -270 71 60 c40 33 92
77 116 97 l44 39 -224 194 c-274 240 -251 223 -277 204z m244 -205 c120 -105
217 -193 215 -197 -5 -10 -174 -152 -181 -152 -3 0 -71 114 -152 253 -134 232
-145 253 -130 270 8 9 18 17 22 17 4 0 105 -86 226 -191z"/>
<path d="M72632 82682 c-17 -42 -32 -83 -34 -90 -2 -8 30 -27 87 -49 50 -20
91 -37 93 -39 2 -1 -88 -224 -199 -495 -111 -272 -204 -501 -206 -510 -3 -11
10 -21 49 -36 29 -12 60 -24 69 -27 13 -6 53 84 219 491 111 274 207 502 211
507 5 6 44 -5 99 -26 l90 -36 14 26 c32 67 58 144 50 151 -7 7 -259 110 -460
189 l-51 20 -31 -76z m294 -53 l231 -92 -27 -66 c-17 -42 -33 -65 -41 -63 -8
1 -49 17 -92 34 -45 18 -82 27 -87 22 -4 -5 -99 -232 -210 -504 -111 -272
-203 -496 -205 -498 -5 -5 -95 33 -95 41 0 5 91 230 201 500 111 271 203 497
206 503 2 6 -39 27 -92 48 -53 21 -95 41 -93 45 2 3 14 34 28 69 14 34 29 60
35 58 5 -2 114 -45 241 -97z"/>
<path d="M73482 82322 c-18 -42 -32 -81 -31 -87 1 -5 39 -26 85 -45 46 -20 86
-38 88 -41 3 -3 -93 -231 -213 -506 l-218 -501 61 -26 c34 -14 66 -26 72 -26
6 0 100 206 209 458 109 251 207 476 217 499 l19 42 82 -36 c45 -19 88 -36 95
-37 11 -1 82 140 82 163 0 9 -486 221 -505 221 -5 0 -25 -35 -43 -78z m517
-148 c5 -5 -37 -114 -49 -127 -4 -4 -48 10 -99 32 l-92 40 -20 -47 c-126 -295
-413 -948 -418 -953 -3 -4 -27 3 -52 15 l-46 21 218 500 c119 275 214 503 211
506 -4 4 -46 23 -94 44 l-87 37 21 46 c11 26 24 57 28 69 9 21 15 19 242 -78
128 -55 235 -102 237 -105z"/>
<path d="M60146 82089 c-92 -116 -170 -217 -172 -224 -7 -16 134 -131 145
-119 4 5 34 42 65 82 l58 73 41 -34 c23 -18 215 -170 426 -337 l384 -304 29
35 c16 19 38 46 48 60 l19 26 -416 329 c-228 181 -420 332 -426 336 -7 4 12
37 51 87 34 44 62 82 62 85 0 4 -114 95 -136 109 -7 4 -79 -78 -178 -204z
m229 139 c30 -24 54 -45 54 -48 1 -3 -26 -39 -59 -80 -33 -41 -59 -78 -57 -83
1 -4 192 -157 423 -340 l421 -334 -29 -39 c-16 -21 -33 -39 -38 -39 -5 0 -197
149 -426 330 -230 182 -421 330 -425 330 -4 0 -35 -35 -69 -77 l-62 -78 -54
43 c-32 25 -52 47 -49 55 5 14 307 401 313 402 2 0 27 -19 57 -42z"/>
<path d="M75538 81415 c-21 -14 -50 -44 -66 -68 -50 -72 -422 -824 -438 -885
-32 -124 2 -175 178 -263 143 -72 188 -80 252 -50 63 31 96 80 224 337 l110
220 -125 63 c-69 34 -127 61 -128 59 -1 -2 -21 -39 -43 -84 l-41 -81 60 -28
c32 -16 59 -30 59 -32 0 -15 -142 -283 -150 -283 -6 0 -64 27 -130 60 l-120
60 207 408 c113 224 207 408 209 410 1 2 83 -38 183 -87 99 -50 183 -91 186
-91 7 0 85 157 85 170 0 6 -82 51 -182 100 -163 81 -188 90 -238 90 -43 0 -64
-6 -92 -25z m314 -81 l177 -87 -35 -69 c-19 -37 -36 -68 -39 -68 -3 0 -82 38
-175 85 -93 47 -176 85 -184 85 -15 0 -425 -798 -429 -835 -2 -16 23 -33 131
-88 111 -57 136 -66 149 -56 12 10 163 299 163 312 0 2 -27 16 -59 32 l-60 28
31 61 c17 34 32 62 33 64 1 2 50 -21 108 -49 l105 -53 -109 -218 c-116 -232
-163 -298 -225 -318 -19 -7 -48 -8 -67 -5 -47 11 -247 113 -280 143 -40 38
-50 86 -32 155 14 56 382 803 433 879 37 57 87 88 142 88 37 0 78 -16 222 -86z"/>
<path d="M59578 81236 c-42 -83 -79 -164 -82 -179 -13 -55 4 -99 59 -153 46
-46 99 -76 456 -254 359 -179 411 -202 465 -207 88 -8 131 17 182 104 50 85
132 249 132 263 0 8 -149 90 -164 90 -3 0 -40 -66 -82 -147 -42 -82 -78 -149
-79 -151 -4 -4 -785 387 -785 393 0 3 34 73 75 155 l75 150 -88 44 -88 44 -76
-152z m150 -90 c-43 -86 -69 -150 -65 -159 6 -17 775 -407 801 -407 8 0 45 59
86 138 39 75 75 141 80 145 10 11 130 -49 130 -65 0 -23 -136 -272 -164 -299
-35 -34 -72 -43 -133 -34 -30 4 -185 76 -446 207 -336 168 -407 207 -447 247
-51 51 -65 90 -50 142 6 18 40 93 77 165 l68 132 67 -34 68 -34 -72 -144z"/>
<path d="M49055 81261 c11 -45 1125 -4203 1139 -4253 l14 -48 -202 -134 c-209
-139 -435 -276 -642 -389 -245 -135 -803 -397 -869 -409 -23 -4 63 -315 -745
2702 -353 1317 -646 2412 -653 2434 l-11 38 -50 -7 c-162 -21 -877 -181 -915
-204 -8 -6 89 -382 359 -1392 204 -761 522 -1945 706 -2632 184 -686 334
-1254 334 -1262 0 -8 -2 -15 -4 -15 -2 0 -91 -22 -198 -49 -348 -89 -727 -164
-1108 -220 -294 -43 -562 -73 -571 -64 -4 4 -302 1111 -663 2458 -361 1348
-658 2456 -661 2463 -3 9 -55 -13 -172 -72 -277 -140 -733 -398 -733 -414 1
-4 272 -1019 604 -2257 l603 -2250 -91 -6 c-276 -20 -1865 -2 -1889 21 -5 4
-208 753 -453 1665 -244 912 -446 1660 -448 1663 -9 8 -552 -442 -818 -678
l-28 -25 335 -1250 c185 -687 339 -1262 342 -1277 5 -26 4 -26 -33 -22 -22 3
-221 25 -444 49 -223 25 -781 92 -1240 150 -1216 152 -1682 203 -2260 245
-889 64 -1645 48 -2439 -51 -3106 -387 -5675 -1981 -7318 -4539 -1134 -1766
-1823 -3952 -2057 -6530 -31 -340 -79 -1075 -75 -1169 0 -9 53 196 118 454
253 1006 497 1796 811 2625 1187 3134 2926 5280 5210 6430 1178 592 2422 910
3970 1012 258 17 1232 17 1520 0 790 -47 1251 -94 2720 -277 1941 -243 2559
-294 3435 -282 753 10 1397 76 2085 213 2874 574 5201 2208 6697 4704 235 392
526 957 684 1327 26 62 19 54 -142 -162 -405 -544 -815 -1020 -1269 -1476
-301 -302 -468 -456 -479 -443 -4 5 -216 788 -471 1739 -254 952 -467 1733
-472 1736 -32 20 -595 108 -853 134 -88 8 -173 17 -188 19 -26 2 -28 1 -22
-23z"/>
<path d="M76514 80931 c-17 -10 -46 -37 -64 -58 -29 -35 -282 -494 -420 -763
-113 -219 -90 -286 142 -404 109 -55 119 -58 171 -54 103 8 127 37 299 361
l106 197 -125 66 c-68 36 -125 65 -127 63 -10 -13 -86 -162 -84 -164 2 -2 29
-16 60 -31 l57 -29 -77 -143 c-42 -78 -81 -141 -87 -140 -28 8 -235 123 -235
131 0 12 420 796 429 801 3 2 85 -38 181 -90 96 -51 179 -92 183 -91 4 1 28
39 53 84 l44 81 -32 20 c-18 11 -103 56 -189 101 -133 69 -163 81 -205 81 -30
0 -61 -7 -80 -19z m285 -87 c91 -48 172 -91 179 -97 9 -7 5 -22 -19 -66 -18
-31 -35 -60 -40 -65 -4 -4 -85 33 -180 84 -130 69 -177 90 -188 83 -9 -5 -115
-193 -235 -417 -186 -346 -217 -409 -205 -421 27 -26 244 -136 263 -133 13 2
43 48 97 148 43 80 79 151 79 157 0 7 -24 25 -52 39 -29 15 -54 27 -55 28 -3
2 54 114 63 125 5 6 204 -104 204 -113 0 -14 -198 -383 -232 -434 -45 -65 -97
-96 -155 -90 -63 6 -275 119 -310 165 -31 40 -34 107 -7 173 28 71 422 801
453 840 42 52 88 80 134 80 31 0 78 -20 206 -86z"/>
<path d="M77570 80348 c-26 -18 -606 -693 -781 -910 l-29 -36 55 -31 c30 -17
59 -31 65 -31 7 0 167 185 206 238 1 2 63 -30 137 -72 l134 -77 -57 -147 c-32
-82 -54 -151 -50 -157 12 -14 118 -70 123 -65 6 8 467 1213 465 1215 -129 80
-147 89 -188 93 -35 3 -52 -1 -80 -20z m179 -44 c40 -25 60 -44 58 -54 -10
-38 -440 -1146 -447 -1154 -7 -7 -58 17 -89 40 -2 2 22 69 53 149 32 79 55
149 52 154 -4 6 -216 130 -287 167 -3 2 -52 -53 -108 -121 l-102 -125 -40 23
c-21 12 -39 25 -39 28 0 14 760 906 786 922 41 25 89 16 163 -29z"/>
<path d="M77394 79983 c-104 -124 -194 -234 -200 -242 -10 -14 7 -27 114 -89
69 -40 128 -69 132 -65 9 10 232 585 228 588 -36 25 -55 35 -69 35 -9 0 -101
-102 -205 -227z m231 193 c17 -12 13 -26 -84 -277 -57 -145 -106 -269 -109
-276 -5 -8 -37 5 -109 45 -57 31 -103 60 -103 65 0 9 373 457 381 457 3 0 14
-6 24 -14z"/>
<path d="M66776 80139 c-453 -66 -848 -398 -997 -836 -50 -147 -63 -234 -63
-403 0 -225 40 -391 142 -585 182 -345 512 -583 905 -651 112 -20 366 -14 467
11 250 61 441 166 616 340 213 212 332 465 365 775 37 355 -99 730 -360 991
-189 188 -428 312 -681 354 -101 16 -297 18 -394 4z"/>
<path d="M70926 79295 c-127 -35 -269 -141 -331 -249 -101 -174 -110 -369 -25
-544 87 -181 258 -297 466 -317 155 -15 335 55 447 174 214 227 211 570 -7
786 -77 77 -159 126 -251 150 -72 18 -231 18 -299 0z"/>
<path d="M79445 79229 c-64 -18 -107 -73 -374 -473 -210 -314 -271 -413 -280
-453 -25 -102 3 -148 145 -243 58 -40 121 -78 140 -86 69 -29 136 -12 198 51
34 34 321 454 314 459 -25 21 -220 146 -226 146 -9 0 -102 -134 -102 -147 0
-5 20 -21 45 -36 25 -16 47 -33 50 -37 6 -10 -164 -270 -177 -270 -12 0 -227
144 -228 153 0 16 501 757 513 757 6 0 86 -49 176 -110 l165 -109 54 81 c30
44 50 84 45 88 -24 22 -321 214 -349 226 -37 16 -65 16 -109 3z m99 -23 c36
-15 336 -213 336 -222 0 -3 -18 -32 -41 -65 l-41 -60 -26 17 c-15 10 -91 60
-170 113 -140 93 -143 94 -161 75 -39 -40 -511 -753 -511 -771 0 -20 245 -187
261 -177 11 6 187 267 195 288 3 8 -15 26 -45 46 -28 17 -51 36 -51 41 0 5 16
34 36 64 l36 54 99 -66 c59 -39 96 -70 92 -77 -4 -6 -60 -92 -126 -191 -169
-254 -225 -307 -312 -291 -19 4 -89 43 -155 87 -107 70 -124 85 -142 125 -36
82 -27 100 273 550 265 398 302 445 366 464 40 12 50 12 87 -4z"/>
<path d="M58935 78857 c-12 -167 -4 -280 21 -314 26 -34 72 -62 122 -74 50
-12 884 -42 946 -34 93 12 157 60 175 134 5 20 12 107 15 194 l7 157 -91 0
c-49 0 -93 1 -97 3 -5 1 -12 -72 -16 -163 -4 -91 -11 -168 -15 -171 -9 -9
-865 20 -874 29 -4 4 -4 81 0 170 4 90 5 166 3 168 -2 2 -46 4 -97 4 l-92 0
-7 -103z m171 -87 c-5 -135 -4 -171 6 -175 25 -8 903 -34 910 -27 4 4 10 80
14 170 l7 162 79 0 78 0 -5 -112 c-11 -228 -18 -258 -73 -297 -58 -41 -99 -43
-561 -26 -240 9 -453 20 -473 24 -57 13 -101 43 -120 81 -19 38 -24 150 -12
293 l7 77 75 0 75 0 -7 -170z"/>
<path d="M69215 78826 c-243 -56 -435 -230 -511 -462 -26 -79 -29 -103 -29
-214 0 -111 3 -135 29 -213 69 -210 233 -374 442 -443 80 -26 102 -29 219 -29
115 1 139 4 210 29 268 92 452 328 471 603 23 320 -167 606 -471 709 -98 33
-264 42 -360 20z"/>
<path d="M80333 78602 c-67 -20 -110 -71 -365 -428 -141 -197 -267 -379 -280
-404 -32 -63 -32 -152 0 -198 13 -18 84 -76 158 -129 114 -81 137 -94 148 -82
7 8 34 44 59 80 l46 66 -132 95 c-77 56 -132 101 -131 110 1 14 457 662 493
700 16 17 24 13 149 -77 73 -52 136 -95 140 -95 7 0 112 144 112 154 0 9 -264
194 -293 205 -31 12 -70 13 -104 3z m93 -22 c15 -6 79 -48 142 -93 64 -45 120
-85 126 -89 9 -6 -56 -112 -76 -125 -5 -2 -64 35 -131 83 -67 48 -131 88 -142
88 -14 1 -82 -86 -268 -344 -137 -190 -255 -357 -263 -372 -17 -34 -20 -31
131 -138 63 -45 115 -86 115 -91 0 -21 -75 -118 -88 -114 -31 11 -250 176
-266 200 -26 40 -30 87 -12 141 18 56 503 741 568 805 54 52 110 69 164 49z"/>
<path d="M81075 78036 c-16 -7 -44 -25 -62 -40 -41 -34 -550 -701 -583 -764
-34 -64 -35 -153 -2 -200 13 -18 82 -77 154 -131 l131 -100 58 77 c33 42 59
79 58 82 0 3 -59 49 -130 104 -72 54 -128 103 -126 110 7 17 516 684 528 691
5 4 65 -35 132 -86 67 -51 127 -96 133 -100 10 -8 124 129 124 148 -1 10 -234
186 -275 207 -36 19 -99 20 -140 2z m120 -16 c27 -10 265 -188 265 -198 0 -12
-81 -112 -91 -112 -5 0 -66 43 -136 96 -122 93 -126 95 -145 77 -23 -20 -516
-664 -535 -698 -6 -12 -9 -26 -5 -31 4 -6 62 -52 130 -103 67 -52 122 -95 122
-98 0 -7 -82 -108 -91 -111 -13 -5 -244 174 -265 206 -28 40 -25 116 6 174 36
67 546 734 584 763 57 44 109 55 161 35z"/>
<path d="M60096 78009 c-49 -5 -90 -10 -92 -11 -1 -2 3 -76 9 -166 5 -89 7
-165 4 -168 -8 -8 -868 -76 -875 -69 -3 3 -10 80 -16 171 l-10 166 -95 -7
c-53 -4 -98 -9 -99 -11 -7 -5 19 -318 29 -356 18 -71 100 -118 203 -118 80 0
817 59 881 71 102 18 154 58 176 133 10 32 -9 377 -20 375 -3 -1 -46 -6 -95
-10z m90 -126 c13 -193 11 -238 -12 -270 -32 -43 -77 -69 -141 -81 -95 -18
-878 -75 -927 -68 -24 4 -59 17 -78 29 -53 36 -65 74 -77 246 -6 85 -9 156 -8
157 1 1 36 4 78 8 l76 7 9 -160 c5 -92 14 -165 21 -172 13 -13 902 54 912 69
3 6 2 82 -4 171 l-10 160 25 4 c14 2 48 5 77 6 l51 1 8 -107z"/>
<path d="M59795 76830 c-280 -66 -518 -120 -527 -120 -19 0 -20 3 -43 113 -9
42 -22 77 -29 77 -15 0 -166 -36 -170 -41 -4 -4 112 -541 118 -546 2 -2 44 7
95 18 74 18 91 25 87 38 -13 43 -39 181 -35 185 2 2 240 58 528 125 289 67
526 123 528 125 6 6 -28 146 -35 145 -4 0 -236 -54 -517 -119z m519 42 c5 -26
5 -46 0 -51 -5 -5 -240 -62 -522 -127 -282 -65 -517 -121 -522 -124 -7 -4 -3
-39 11 -99 12 -51 17 -96 13 -100 -15 -13 -126 -33 -133 -24 -9 9 -115 493
-109 497 1 2 33 10 70 19 78 17 67 28 94 -100 10 -46 22 -83 28 -83 6 1 238
54 516 120 278 65 514 117 525 117 15 -2 22 -13 29 -45z"/>
<path d="M82852 76575 c-30 -17 -902 -690 -961 -742 -6 -4 91 -92 102 -93 4 0
61 43 127 96 66 53 124 94 129 92 17 -6 221 -190 221 -199 0 -5 -38 -68 -85
-139 l-84 -130 45 -43 c26 -23 51 -45 58 -49 7 -4 140 192 361 534 193 298
351 545 353 549 4 10 -109 117 -142 136 -33 19 -77 15 -124 -12z m116 -9 c15
-8 49 -37 76 -64 l49 -50 -44 -70 c-217 -343 -636 -982 -645 -982 -5 0 -24 15
-42 33 l-32 33 81 124 c45 69 83 130 86 137 4 10 -217 218 -244 230 -6 2 -65
-39 -131 -91 -66 -53 -124 -96 -129 -96 -5 0 -22 14 -38 30 -25 26 -27 32 -15
44 48 43 888 692 923 712 49 28 68 29 105 10z"/>
<path d="M82618 76259 c-134 -105 -244 -194 -246 -198 -3 -9 207 -197 216
-194 4 2 84 121 179 265 l172 263 -31 28 c-18 15 -36 27 -40 27 -4 0 -116 -86
-250 -191z m273 145 c16 -14 7 -31 -138 -252 -85 -130 -158 -241 -163 -246 -9
-9 -30 7 -138 105 l-52 48 227 180 c126 99 232 180 237 181 5 0 17 -7 27 -16z"/>
<path d="M83649 75832 c-39 -20 -944 -660 -989 -699 -2 -2 18 -26 46 -54 l50
-50 133 97 133 97 109 -109 109 -109 -94 -130 -95 -130 55 -55 c44 -45 57 -52
64 -40 5 8 175 249 378 535 l370 520 -62 63 c-64 66 -102 92 -134 92 -11 0
-44 -13 -73 -28z m109 -6 c15 -8 51 -38 79 -68 l53 -53 -361 -510 c-199 -281
-364 -513 -368 -517 -4 -5 -24 9 -44 30 l-37 38 94 129 94 130 -122 124 -123
123 -119 -87 c-66 -48 -124 -91 -129 -96 -6 -4 -27 6 -49 25 l-38 32 471 337
c413 296 532 376 564 377 4 0 20 -6 35 -14z"/>
<path d="M83405 75529 c-138 -99 -251 -183 -253 -187 -1 -4 44 -53 101 -110
l103 -103 188 263 187 263 -31 27 c-16 16 -34 28 -38 28 -4 0 -120 -81 -257
-181z m277 134 c15 -17 3 -36 -152 -253 -93 -129 -172 -236 -177 -237 -4 -2
-46 35 -92 81 l-84 84 68 49 c37 26 142 103 233 170 92 67 172 122 178 122 6
1 18 -7 26 -16z"/>
<path d="M60665 74973 c-176 -213 -362 -438 -413 -500 -66 -80 -92 -118 -88
-131 3 -10 34 -48 69 -85 58 -62 65 -67 105 -67 26 0 63 10 95 26 49 25 978
585 1004 606 9 8 2 22 -30 59 -23 27 -46 49 -51 49 -5 0 -67 -36 -138 -80 -70
-44 -131 -80 -134 -80 -4 0 -12 6 -18 14 -6 8 -51 59 -99 115 l-88 100 100
119 c56 65 101 123 101 128 0 5 -22 33 -48 62 l-47 53 -320 -388z m355 315
c16 -18 30 -37 30 -42 0 -4 -43 -59 -95 -121 -52 -63 -96 -118 -97 -123 -4
-14 215 -263 227 -258 5 2 68 40 139 83 l128 80 33 -36 c19 -20 33 -37 32 -37
-24 -18 -949 -575 -988 -595 -81 -42 -113 -39 -164 14 -22 24 -50 56 -62 72
l-21 30 400 483 c219 265 401 482 404 482 2 0 18 -15 34 -32z"/>
<path d="M60549 74639 c-194 -232 -201 -242 -188 -266 19 -35 44 -46 72 -32
20 11 507 308 516 315 3 3 -189 224 -195 224 -2 0 -94 -108 -205 -241z m296
108 c58 -67 66 -80 54 -92 -8 -7 -119 -77 -246 -155 -226 -138 -256 -151 -269
-116 -3 9 65 100 183 240 142 171 190 223 198 213 6 -6 42 -47 80 -90z"/>
<path d="M84255 75226 l-70 -64 73 -74 73 -75 -393 -372 c-216 -205 -394 -378
-396 -385 -1 -6 20 -33 48 -61 l50 -49 42 41 c24 23 203 192 398 378 l355 336
70 -75 70 -76 68 65 c37 36 67 67 67 71 0 7 -368 398 -378 401 -4 2 -38 -26
-77 -61z m254 -154 l174 -184 -53 -53 -52 -53 -71 75 -72 75 -340 -322 c-187
-177 -366 -347 -397 -378 l-58 -56 -35 34 c-19 19 -35 37 -35 41 0 5 178 177
395 384 l396 377 -71 75 -72 75 54 48 c29 27 55 48 58 47 3 -1 83 -85 179
-185z"/>
<path d="M61626 74545 c-31 -41 -56 -77 -56 -80 0 -3 59 -48 131 -101 73 -54
129 -102 127 -110 -3 -15 -494 -678 -514 -695 -11 -9 -42 9 -142 85 -71 53
-133 96 -138 96 -9 -1 -101 -120 -110 -144 -5 -14 231 -197 279 -215 70 -27
142 -7 210 58 45 42 519 684 555 751 39 75 43 144 11 196 -16 26 -276 234
-293 234 -2 0 -29 -34 -60 -75z m193 -49 c69 -52 134 -108 144 -124 23 -41 21
-97 -7 -157 -19 -43 -476 -672 -540 -744 -60 -68 -145 -96 -208 -68 -35 16
-257 180 -258 190 0 10 81 117 89 117 3 0 64 -43 134 -95 105 -77 131 -92 145
-84 9 6 42 45 73 87 31 43 149 202 263 356 114 153 205 283 203 290 -2 9 -178
147 -242 190 -18 12 -17 15 25 74 25 34 47 62 49 62 2 0 61 -42 130 -94z"/>
<path d="M62355 73628 c-120 -227 -235 -445 -257 -484 l-38 -71 -83 43 c-45
24 -86 43 -92 44 -9 0 -100 -159 -93 -165 8 -6 486 -255 491 -255 7 0 87 146
87 159 0 6 -30 26 -67 45 -38 19 -76 41 -87 48 -17 14 -4 41 233 489 138 261
251 479 251 485 0 10 -108 74 -123 74 -3 0 -103 -186 -222 -412z m275 362 c22
-11 40 -26 40 -32 0 -6 -113 -225 -251 -486 -138 -261 -247 -478 -242 -482 4
-5 45 -28 90 -52 l82 -44 -35 -62 c-19 -34 -38 -62 -41 -62 -5 0 -444 229
-451 235 -7 6 63 125 73 125 6 0 47 -20 92 -45 46 -24 84 -41 86 -37 3 4 118
222 257 485 138 262 254 477 256 477 3 0 23 -9 44 -20z"/>
<path d="M85705 73491 c-59 -30 -693 -517 -768 -589 -72 -70 -95 -153 -59
-223 29 -56 164 -224 201 -250 45 -31 119 -31 181 1 41 21 321 230 408 305
l36 32 -73 96 c-41 53 -80 102 -87 108 -11 9 -29 0 -84 -42 -39 -29 -70 -55
-70 -58 0 -4 18 -28 40 -56 21 -27 38 -50 37 -51 -1 0 -58 -44 -126 -98 -68
-53 -127 -96 -130 -96 -4 0 -44 49 -90 110 l-84 110 29 22 c238 188 691 538
696 538 5 0 120 -145 244 -309 9 -12 24 -5 88 45 42 32 76 61 76 64 0 14 -246
323 -273 342 -18 13 -50 23 -81 26 -42 3 -62 -2 -111 -27z m162 -7 c23 -12 71
-64 154 -172 134 -174 131 -159 45 -221 l-45 -31 -119 152 c-71 92 -126 154
-138 156 -24 3 -738 -551 -742 -576 -4 -23 166 -242 187 -242 10 0 79 48 154
106 l137 107 -32 41 c-17 22 -36 46 -40 53 -6 8 8 25 42 52 29 23 55 41 59 41
4 0 38 -41 76 -90 58 -77 66 -93 54 -104 -49 -45 -371 -287 -406 -305 -26 -13
-61 -21 -92 -21 -42 0 -56 5 -85 30 -56 50 -184 226 -192 264 -8 47 10 97 54
145 55 62 708 567 776 601 67 34 103 37 153 14z"/>
<path d="M64321 72797 c-73 -287 -136 -525 -140 -528 -4 -5 -134 22 -197 41
-5 1 -46 -182 -42 -185 10 -11 533 -134 539 -127 5 6 49 162 49 174 0 2 -45
15 -100 28 -80 19 -99 27 -96 39 14 47 266 1034 266 1041 0 7 -115 40 -137 40
-4 0 -68 -235 -142 -523z m253 471 c2 -2 -57 -235 -131 -518 -73 -283 -132
-521 -130 -529 1 -9 34 -23 90 -37 49 -12 91 -25 94 -28 11 -11 -29 -136 -43
-136 -12 0 -315 74 -455 111 l-37 9 16 63 c8 34 18 66 22 70 4 5 49 -1 99 -13
51 -12 95 -19 98 -16 5 5 272 1032 273 1048 0 6 99 -17 104 -24z"/>
<path d="M65117 73078 c-9 -50 -15 -93 -13 -95 2 -2 72 -15 157 -30 85 -14
158 -30 163 -34 6 -5 -22 -178 -70 -439 -71 -391 -80 -430 -98 -430 -11 0 -84
12 -164 26 -80 14 -148 22 -152 17 -8 -9 -40 -176 -34 -182 11 -12 333 -60
367 -54 55 8 111 61 135 126 29 78 172 861 172 942 0 88 -25 143 -78 172 -33
18 -295 73 -350 73 -16 0 -21 -14 -35 -92z m215 41 c70 -12 141 -30 158 -40
49 -30 70 -75 70 -148 0 -77 -144 -863 -171 -937 -11 -28 -32 -63 -48 -78 -47
-45 -85 -48 -255 -19 -83 15 -153 28 -154 29 -2 1 2 36 8 78 12 73 13 75 39
70 225 -42 297 -52 307 -41 11 12 165 831 164 873 0 12 -6 26 -12 31 -7 6 -75
21 -150 33 -75 13 -143 27 -149 31 -10 6 -10 23 0 79 13 70 14 72 40 67 14 -3
83 -15 153 -28z"/>
<path d="M66026 72978 c-20 -149 -20 -147 5 -152 13 -3 87 -12 163 -21 77 -9
142 -18 146 -20 6 -3 -95 -840 -105 -871 -2 -7 -48 -5 -152 7 -81 10 -157 18
-169 18 -19 1 -22 -8 -31 -91 -6 -51 -8 -96 -5 -99 4 -3 82 -14 174 -24 159
-17 169 -17 213 -1 53 21 91 65 111 131 22 74 124 913 117 965 -3 25 -14 61
-24 81 -31 62 -69 78 -241 100 -207 26 -195 27 -202 -23z m232 -3 c67 -8 125
-21 143 -32 47 -28 69 -79 69 -165 0 -78 -93 -835 -111 -903 -18 -66 -48 -106
-97 -127 -44 -20 -47 -20 -204 -2 l-160 18 6 75 c4 42 8 77 10 78 1 1 74 -6
161 -17 126 -15 162 -17 171 -7 6 6 35 199 63 427 29 228 54 426 56 440 3 14
2 30 -3 37 -4 6 -76 19 -167 30 l-160 19 2 34 c2 19 5 54 8 78 l6 43 47 -6
c26 -3 98 -12 160 -20z"/>
<path d="M70086 72838 c-12 -77 -17 -168 -9 -168 27 0 326 -30 329 -33 5 -5
-80 -875 -86 -880 -3 -2 -78 3 -168 11 -90 7 -165 12 -167 10 -3 -2 -7 -47
-11 -99 l-7 -96 180 -13 c167 -12 182 -12 217 5 47 22 80 66 99 131 8 28 34
249 58 492 46 485 46 518 -7 581 -36 43 -86 58 -239 71 -77 6 -150 13 -162 16
-19 3 -23 -1 -27 -28z m194 -8 c184 -17 228 -42 250 -143 10 -44 6 -115 -29
-482 -23 -236 -49 -455 -57 -485 -20 -70 -44 -103 -90 -125 -34 -16 -50 -16
-201 -5 l-165 13 7 76 c4 42 8 77 9 78 1 2 74 -4 162 -12 147 -14 160 -14 172
2 6 9 12 26 12 37 0 11 18 209 41 439 24 257 37 423 31 429 -7 7 -262 37 -324
38 -6 0 0 113 7 138 5 15 27 15 175 2z"/>
<path d="M68097 72838 c2 -13 39 -301 83 -642 44 -340 81 -620 83 -622 10 -10
207 -5 227 6 44 23 67 108 185 670 64 305 118 565 122 578 5 23 4 23 -68 20
l-73 -3 -31 -155 -31 -155 -52 0 c-29 1 -99 2 -156 3 l-103 2 -18 160 -18 160
-77 0 c-75 0 -77 -1 -73 -22z m148 -157 l18 -158 170 -8 c118 -5 172 -3 176 4
4 6 20 78 36 161 l29 150 48 0 c26 0 48 -5 48 -10 0 -18 -221 -1064 -237
-1122 -8 -32 -26 -69 -39 -83 -21 -23 -29 -25 -118 -25 l-95 0 -6 33 c-6 37
-155 1196 -155 1209 0 4 24 8 54 8 l53 0 18 -159z"/>
<path d="M68285 72343 c5 -28 75 -585 75 -597 0 -12 91 -6 95 7 7 17 125 592
125 606 0 8 -47 11 -150 11 l-149 0 4 -27z m267 1 c3 -3 2 -20 -2 -37 -5 -18
-32 -148 -61 -289 l-52 -258 -29 0 c-15 0 -28 1 -28 3 0 1 -16 126 -35 277
-19 151 -35 283 -35 293 0 15 12 17 118 17 65 0 121 -3 124 -6z"/>
<path d="M69313 72852 c-10 -6 -13 -131 -15 -548 l-3 -539 -102 -3 -103 -3 0
-94 0 -95 280 0 280 0 0 95 0 95 -100 0 -100 0 0 550 0 550 -62 0 c-35 0 -69
-4 -75 -8z m117 -562 l0 -550 100 0 100 0 0 -75 0 -75 -260 0 -260 0 0 75 0
75 105 0 105 0 0 544 0 545 43 4 c23 2 48 4 55 5 9 2 12 -114 12 -548z"/>
<path d="M86475 72518 c-28 -10 -1075 -487 -1084 -494 -7 -6 68 -114 79 -114
5 0 71 29 147 65 l138 65 22 -27 c12 -15 52 -72 90 -126 l68 -100 -118 -111
-118 -111 41 -60 c24 -33 43 -61 45 -63 2 -2 733 695 887 847 l58 56 -49 76
c-27 42 -59 83 -72 93 -26 18 -88 20 -134 4z m116 -19 c11 -6 41 -42 66 -81
44 -68 45 -71 27 -88 -400 -385 -889 -850 -894 -850 -4 0 -20 19 -35 41 l-27
41 118 112 117 111 -98 142 -97 142 -52 -24 c-28 -12 -94 -43 -148 -68 l-96
-46 -27 41 c-15 22 -25 41 -23 42 3 3 1012 463 1058 484 33 14 86 15 111 1z"/>
<path d="M86190 72269 c-151 -71 -276 -133 -278 -138 -3 -9 141 -226 157 -235
9 -6 461 423 461 438 0 13 -47 66 -58 65 -4 0 -131 -59 -282 -130z m307 82
c12 -19 13 -18 -348 -359 l-76 -71 -68 100 c-37 55 -65 102 -63 105 11 10 514
243 528 243 8 1 20 -7 27 -18z"/>
<path d="M86978 71797 c-37 -24 -70 -46 -74 -49 -3 -4 17 -46 46 -93 29 -47
50 -88 49 -89 -6 -4 -647 -398 -799 -490 -71 -44 -130 -83 -130 -88 0 -7 63
-112 76 -126 1 -2 94 53 206 123 112 69 321 200 466 290 l262 164 26 -42 c15
-23 38 -61 53 -84 14 -24 29 -43 33 -43 12 0 158 95 155 101 -14 35 -285 468
-292 468 -5 0 -40 -19 -77 -42z m197 -184 c66 -108 126 -207 132 -219 12 -21
9 -25 -46 -58 -32 -20 -61 -36 -64 -36 -3 0 -29 38 -57 85 -28 47 -55 83 -58
81 -4 -2 -214 -133 -467 -289 l-460 -285 -28 45 c-16 25 -27 46 -25 48 2 2
208 130 458 284 250 155 458 285 462 289 4 4 -15 45 -43 91 -28 47 -46 88 -42
92 16 16 98 67 108 68 6 1 64 -88 130 -196z"/>
<path d="M73884 71113 c-131 -230 -253 -444 -272 -476 l-34 -58 -46 27 c-26
15 -66 38 -88 51 l-42 24 -47 -82 c-26 -45 -43 -85 -38 -89 10 -10 444 -257
465 -265 11 -5 28 16 63 76 26 46 44 84 39 86 -5 2 -46 25 -90 51 l-81 47 272
477 273 477 -64 36 c-36 19 -66 35 -68 35 -2 0 -111 -188 -242 -417z m296 365
c22 -13 40 -27 40 -33 0 -5 -122 -221 -269 -480 l-269 -469 86 -49 c48 -27 88
-51 90 -52 4 -4 -68 -125 -75 -125 -8 0 -416 232 -431 245 -11 10 -6 24 23 74
35 59 38 62 58 48 12 -7 52 -30 89 -51 l66 -37 272 476 c149 261 274 475 276
475 3 0 23 -10 44 -22z"/>
<path d="M74675 70647 c-137 -215 -269 -422 -292 -459 l-44 -68 -86 56 c-47
30 -86 54 -87 52 -1 -2 -21 -33 -45 -70 -24 -37 -44 -74 -45 -82 -1 -12 352
-247 446 -297 15 -8 26 3 67 68 31 47 46 81 41 88 -5 5 -43 30 -84 55 -42 25
-76 47 -75 50 0 3 132 212 293 465 l294 460 -59 38 c-32 20 -62 37 -66 37 -4
0 -120 -177 -258 -393z m310 341 c19 -13 35 -27 35 -32 0 -4 -128 -209 -284
-455 -155 -245 -286 -451 -290 -458 -3 -7 26 -31 77 -64 45 -28 83 -53 85 -54
2 -2 -61 -108 -74 -124 -4 -4 -434 269 -434 276 0 3 16 31 36 64 22 35 41 56
48 52 6 -4 40 -25 76 -48 36 -23 70 -44 76 -48 7 -4 122 168 304 453 161 253
296 460 301 460 5 0 25 -10 44 -22z"/>
<path d="M75494 70568 c-27 -40 -50 -76 -52 -80 -2 -4 58 -48 132 -99 75 -51
136 -97 136 -102 0 -14 -493 -727 -503 -727 -5 0 -65 39 -134 86 -68 48 -131
87 -139 88 -7 0 -36 -33 -64 -74 l-50 -75 26 -22 c15 -12 79 -56 142 -99 104
-71 119 -78 171 -82 67 -5 98 8 153 63 39 39 469 656 525 754 55 95 56 175 1
237 -29 32 -270 204 -287 204 -4 0 -30 -33 -57 -72z m182 -34 c55 -37 114 -81
131 -97 58 -54 65 -124 22 -209 -32 -62 -487 -719 -527 -761 -91 -95 -145 -92
-304 17 -62 42 -121 83 -131 91 -18 13 -17 17 22 74 23 34 44 61 47 61 3 0 65
-40 136 -89 72 -49 137 -87 144 -84 18 7 516 730 518 751 1 13 -173 144 -253
191 -11 7 -5 22 29 70 25 38 47 60 55 57 7 -2 57 -35 111 -72z"/>
<path d="M87925 69583 c-76 -11 -865 -228 -906 -249 -63 -31 -106 -83 -114
-136 -5 -33 3 -79 36 -203 23 -88 45 -163 48 -168 4 -4 29 -1 57 7 27 8 67 19
90 25 l41 11 -39 161 c-22 89 -37 163 -34 166 11 11 828 224 840 220 7 -3 23
-45 35 -94 44 -174 62 -224 80 -219 9 3 49 14 90 25 41 11 75 22 77 24 4 4
-64 286 -77 320 -17 40 -47 75 -78 91 -31 16 -103 26 -146 19z m124 -38 c58
-29 76 -66 116 -225 21 -83 36 -152 34 -154 -6 -5 -124 -36 -136 -36 -6 0 -28
70 -49 156 -22 86 -45 159 -52 161 -16 7 -863 -216 -879 -231 -9 -9 -3 -47 28
-170 22 -87 39 -159 37 -161 -10 -6 -140 -37 -143 -33 -13 12 -75 279 -75 319
0 60 30 104 94 137 68 36 876 251 944 251 29 1 66 -6 81 -14z"/>
<path d="M77192 69360 c-28 -38 -54 -74 -56 -82 -3 -8 47 -52 125 -111 71 -54
129 -101 129 -105 0 -7 -508 -674 -529 -695 -9 -9 -57 24 -268 185 -8 6 -30
-16 -72 -70 l-60 -80 139 -105 c144 -109 178 -125 245 -114 74 12 114 55 394
422 152 198 284 380 298 411 31 67 28 134 -6 182 -17 25 -232 199 -276 224 -5
3 -34 -25 -63 -62z m321 -172 c31 -42 33 -99 4 -162 -26 -56 -511 -700 -574
-761 -66 -64 -130 -80 -193 -47 -43 22 -250 180 -250 191 0 14 82 116 91 114
5 -2 63 -44 128 -94 74 -56 126 -89 138 -87 27 5 566 710 557 730 -3 7 -61 55
-130 107 -68 52 -124 96 -124 98 0 3 20 31 45 64 l46 59 122 -94 c67 -51 130
-104 140 -118z"/>
<path d="M77916 68788 c-31 -39 -56 -75 -56 -79 0 -4 59 -53 130 -109 88 -69
128 -106 122 -114 -139 -182 -537 -686 -543 -686 -4 0 -61 42 -126 93 -65 51
-123 96 -130 100 -13 8 -138 -143 -126 -153 49 -43 246 -191 270 -204 41 -21
105 -21 151 1 19 9 57 40 83 67 72 76 534 672 565 729 34 63 37 137 8 187 -17
29 -266 238 -286 240 -4 0 -32 -32 -62 -72z m194 -56 c69 -54 127 -107 137
-125 23 -46 19 -108 -11 -164 -32 -58 -498 -658 -564 -725 -74 -76 -138 -96
-203 -62 -45 23 -249 184 -249 196 0 9 38 61 80 111 4 4 65 -37 135 -93 71
-55 132 -100 136 -100 18 0 570 711 567 730 -2 8 -57 57 -123 108 -66 52 -121
98 -123 103 -4 10 80 119 90 116 4 -1 62 -44 128 -95z"/>
<path d="M87048 68451 l4 -69 86 -12 c48 -7 119 -17 157 -24 l70 -11 2 -152 2
-152 -52 -10 c-29 -6 -92 -18 -142 -26 -133 -24 -125 -19 -125 -78 0 -29 3
-62 6 -75 6 -21 10 -22 58 -16 28 4 314 57 636 118 l585 112 3 69 c6 141 -16
189 -98 214 -36 11 -1145 181 -1180 181 -12 0 -14 -13 -12 -69z m609 -40 c293
-44 551 -85 572 -92 69 -21 84 -46 89 -149 4 -87 4 -89 -19 -95 -13 -3 -292
-56 -619 -119 l-595 -113 -3 50 c-2 27 -1 51 2 54 3 3 63 16 133 29 70 13 138
26 151 29 22 5 22 6 20 178 l-3 172 -115 17 c-63 9 -134 20 -157 23 l-43 6 0
50 c0 50 0 51 28 45 15 -3 267 -42 559 -85z"/>
<path d="M87538 68188 c2 -79 6 -145 8 -147 2 -2 140 21 306 53 167 31 306 56
311 56 12 0 8 65 -5 82 -10 12 -85 26 -298 57 -157 23 -295 41 -306 41 -21 0
-21 -3 -16 -142z m304 82 c150 -22 278 -40 284 -40 10 0 27 -50 19 -58 -1 -2
-81 -16 -176 -33 -96 -16 -220 -38 -277 -49 -57 -11 -109 -20 -117 -20 -11 0
-14 26 -17 120 -2 66 0 120 5 120 4 0 130 -18 279 -40z"/>
<path d="M78512 67745 c-184 -234 -338 -425 -342 -425 -5 0 -21 10 -37 23 -15
13 -49 40 -75 60 l-46 38 -56 -72 c-31 -39 -56 -75 -56 -79 0 -6 310 -255 425
-341 6 -5 35 23 69 68 49 63 57 78 44 87 -72 55 -138 110 -138 117 0 5 151
201 336 435 184 235 331 430 327 433 -62 51 -103 81 -110 81 -4 0 -158 -191
-341 -425z m390 362 l37 -32 -339 -430 c-187 -236 -336 -432 -332 -436 4 -3
40 -32 80 -63 50 -39 70 -61 64 -69 -48 -64 -77 -97 -84 -97 -10 0 -392 299
-396 310 -2 5 16 33 39 63 l43 55 81 -63 81 -63 337 429 c186 236 341 429 345
429 4 0 24 -15 44 -33z"/>
<path d="M87022 67424 c-47 -24 -65 -55 -106 -179 -39 -115 -53 -196 -42 -238
9 -39 54 -85 105 -112 45 -22 511 -169 517 -162 11 10 83 262 76 267 -7 7
-151 50 -164 50 -4 0 -15 -27 -24 -60 -9 -33 -22 -60 -28 -60 -16 0 -292 84
-297 90 -5 7 75 270 82 270 11 0 861 -259 866 -263 2 -3 -23 -92 -56 -198 -33
-107 -57 -197 -53 -200 7 -7 175 -59 178 -56 8 8 116 370 121 403 12 88 -45
163 -155 203 -31 11 -230 73 -442 137 -319 96 -399 117 -465 121 -61 3 -88 0
-113 -13z m583 -133 c220 -67 418 -128 440 -137 91 -36 143 -103 132 -172 -5
-28 -106 -371 -113 -380 -4 -6 -144 39 -144 46 0 4 25 87 55 184 30 97 55 183
55 192 0 8 -8 19 -17 24 -10 5 -209 67 -442 137 -311 94 -429 125 -440 118
-21 -13 -104 -274 -93 -292 6 -11 304 -110 334 -111 4 0 16 27 25 60 12 40 23
60 34 60 14 0 109 -29 117 -36 7 -5 -62 -224 -71 -224 -27 0 -450 136 -492
158 -60 33 -95 81 -95 132 0 45 65 263 91 306 11 17 34 39 52 48 64 33 139 18
572 -113z"/>
<path d="M80165 66470 c-180 -242 -329 -440 -332 -440 -2 0 -39 27 -83 60
l-78 59 -57 -75 c-47 -63 -55 -78 -44 -89 15 -14 407 -307 425 -318 14 -8 130
142 117 152 -4 4 -37 29 -73 56 -36 27 -69 52 -73 56 -5 4 135 200 310 435
176 236 323 435 327 442 8 14 7 15 -70 71 l-41 30 -328 -439z m389 367 l29
-24 -319 -429 c-176 -236 -323 -434 -327 -441 -5 -7 22 -34 73 -73 l81 -62
-27 -36 c-15 -21 -35 -47 -45 -60 l-17 -23 -204 152 c-112 84 -205 153 -207
155 -2 2 16 30 41 63 l44 59 79 -59 c43 -32 81 -59 84 -59 3 1 152 198 331
439 252 340 328 436 340 430 8 -4 28 -19 44 -32z"/>
<path d="M80797 65982 c-136 -284 -263 -549 -282 -589 l-34 -72 71 -52 c84
-61 119 -73 168 -58 26 9 147 123 468 442 237 237 432 436 432 443 0 6 -24 27
-54 47 l-55 36 -113 -115 -114 -116 -126 87 -126 87 65 137 c36 75 67 141 69
147 4 10 -14 24 -96 77 l-25 15 -248 -516z m342 420 c0 -4 -31 -70 -68 -147
l-67 -140 140 -97 141 -97 115 115 115 114 39 -26 38 -26 -103 -107 c-315
-322 -680 -688 -722 -722 -76 -61 -122 -51 -255 57 -2 1 120 258 270 572 l273
569 43 -29 c23 -16 42 -32 41 -36z"/>
<path d="M80802 65705 c-73 -151 -135 -281 -138 -289 -3 -8 9 -22 31 -36 l37
-23 224 224 c123 123 224 226 224 229 0 6 -235 170 -242 170 -2 0 -63 -124
-136 -275z m256 167 l94 -65 -208 -208 c-115 -115 -214 -209 -220 -209 -6 0
-17 6 -23 14 -10 12 13 67 115 280 75 153 133 262 139 259 5 -4 52 -36 103
-71z"/>
<path d="M82026 65818 c-8 -13 -132 -221 -276 -463 -144 -242 -266 -444 -271
-449 -5 -5 -44 12 -94 42 l-85 51 -23 -37 c-13 -20 -35 -58 -49 -83 l-27 -45
241 -143 c132 -78 241 -141 243 -139 1 2 24 38 50 82 38 62 45 80 34 87 -8 5
-47 28 -87 51 -46 27 -71 47 -68 55 3 7 129 220 280 473 l275 460 -42 26 c-23
15 -52 32 -64 40 -20 13 -24 12 -37 -8z m104 -78 c-4 -8 -130 -219 -279 -469
-149 -249 -271 -456 -271 -460 0 -3 38 -28 85 -55 47 -26 85 -51 85 -53 0 -13
-73 -124 -79 -121 -4 2 -105 61 -224 132 l-217 128 19 32 c10 17 27 45 38 63
l19 31 84 -49 c47 -27 88 -49 91 -49 3 0 131 211 285 469 l279 469 47 -26 c35
-20 45 -30 38 -42z"/>
<path d="M85774 65689 c-105 -55 -228 -143 -248 -177 -23 -42 -24 -122 -1
-177 18 -41 248 -419 271 -444 10 -11 30 -3 121 54 59 38 112 72 117 76 7 7
-79 159 -91 159 -2 0 -28 -15 -58 -34 l-54 -35 -72 117 c-40 64 -79 127 -86
138 -13 21 -8 25 106 97 l120 76 19 -27 c29 -41 462 -740 462 -745 0 -3 -48
-36 -107 -73 -60 -37 -138 -87 -175 -111 l-68 -43 46 -75 c25 -41 50 -77 55
-81 9 -5 261 146 337 203 76 57 94 151 48 248 -40 86 -475 778 -513 817 -73
75 -137 86 -229 37z m150 -4 c18 -9 47 -30 64 -48 35 -36 472 -734 508 -812
31 -66 32 -131 1 -176 -15 -22 -79 -70 -182 -136 -88 -56 -164 -102 -170 -102
-5 -1 -27 27 -48 61 -29 47 -35 63 -25 69 145 87 323 208 326 221 4 21 -477
798 -494 798 -19 0 -255 -151 -261 -166 -4 -12 79 -157 162 -281 l21 -32 52
34 c28 19 54 35 56 35 5 0 76 -107 76 -114 0 -6 -189 -126 -198 -126 -10 1
-246 385 -266 434 -20 49 -21 118 0 157 9 19 52 54 117 96 162 105 199 117
261 88z"/>
<path d="M84776 65259 c-60 -16 -123 -37 -140 -47 -61 -36 -94 -118 -81 -200
6 -35 116 -505 119 -509 1 -2 129 29 237 58 l36 9 -20 88 c-11 48 -21 88 -22
90 -2 2 -31 -4 -65 -13 -34 -9 -64 -15 -65 -13 -6 6 -77 309 -73 312 7 6 269
68 273 65 10 -11 212 -875 205 -882 -4 -5 -79 -27 -166 -48 -88 -22 -175 -44
-195 -50 l-37 -9 23 -91 c13 -50 25 -92 27 -94 9 -9 406 98 436 118 52 35 76
95 69 175 -4 62 -177 806 -213 916 -50 156 -128 184 -348 125z m264 -24 c16
-15 38 -46 48 -69 22 -47 221 -865 229 -942 7 -66 -10 -116 -51 -152 -28 -24
-66 -37 -225 -77 -105 -26 -193 -46 -195 -44 -5 7 -37 141 -34 144 2 1 90 24
196 50 107 26 196 53 199 60 5 16 -205 895 -218 911 -15 18 -303 -57 -307 -79
-3 -14 57 -288 73 -334 3 -9 17 -8 57 3 29 7 58 14 65 14 11 0 25 -37 39 -106
l6 -29 -113 -28 c-61 -15 -114 -25 -117 -22 -3 2 -29 103 -59 222 -94 384 -82
421 155 484 139 37 209 35 252 -6z"/>
<path d="M83836 65118 c-3 -24 -15 -259 -26 -523 -12 -264 -23 -490 -26 -502
-4 -22 -9 -23 -103 -23 l-98 0 -7 -52 c-3 -29 -6 -71 -6 -94 l0 -41 278 -10
c152 -5 278 -9 279 -8 2 1 6 42 9 92 l7 90 -33 6 c-18 4 -63 7 -101 7 l-69 0
0 60 c0 67 36 841 45 963 l5 77 -74 0 -75 0 -5 -42z m127 -30 c-2 -29 -12
-249 -23 -488 -11 -239 -22 -463 -25 -497 l-6 -63 74 0 c41 0 89 -3 106 -6 27
-6 31 -11 31 -38 0 -17 -3 -48 -7 -70 l-6 -38 -256 7 c-141 4 -258 9 -260 10
-2 2 0 36 4 74 l7 71 99 0 c94 0 99 1 103 23 3 12 14 238 26 502 11 264 23
499 26 523 l5 42 53 0 53 0 -4 -52z"/>
<path d="M87927 63468 c756 -716 1417 -1412 1974 -2079 1824 -2183 2839 -4315
3078 -6464 39 -354 46 -491 46 -955 0 -463 -7 -600 -46 -955 -166 -1499 -721
-3008 -1670 -4535 -419 -675 -826 -1245 -1844 -2585 -1022 -1345 -1496 -2031
-1895 -2745 -241 -433 -541 -1078 -715 -1540 -653 -1733 -840 -3528 -550
-5261 227 -1357 737 -2647 1538 -3894 112 -174 376 -556 422 -610 l26 -30 -15
35 c-8 19 -49 116 -91 215 -285 665 -531 1381 -685 1995 -52 208 -110 463
-106 468 2 2 788 -207 1747 -464 l1743 -467 33 39 c104 120 280 333 354 429
93 119 268 360 275 379 3 7 -731 208 -2153 589 -1187 318 -2159 580 -2161 582
-7 7 -21 209 -33 462 -12 283 -7 621 17 933 12 171 20 250 50 503 4 32 10 60
14 62 4 3 1148 -301 2542 -674 1394 -374 2559 -686 2589 -694 l56 -14 67 191
c107 305 237 748 223 762 -3 4 -390 109 -859 235 -469 126 -1655 444 -2635
706 -1510 405 -1783 480 -1783 495 0 29 124 451 195 664 107 321 226 629 396
1021 28 65 50 103 59 103 8 0 1120 -296 2470 -658 l2455 -659 6 46 c12 81 29
843 22 916 l-8 70 -2240 600 c-1232 331 -2246 603 -2253 606 -37 13 947 1697
999 1707 8 1 759 -198 1669 -442 910 -244 1657 -442 1658 -440 13 10 -174
1063 -191 1080 -3 3 -567 156 -1253 340 -687 184 -1259 338 -1271 342 -20 6
-6 29 190 297 117 160 335 452 485 650 1151 1519 1532 2042 1881 2583 993
1537 1600 3213 1770 4892 39 382 46 528 46 1015 0 562 -14 791 -81 1295 -246
1865 -1066 3682 -2398 5315 -1042 1276 -2384 2440 -4048 3508 -109 70 -200
127 -203 127 -3 0 38 -42 92 -92z"/>
<path d="M25044 58858 c7 -18 58 -139 113 -268 273 -643 510 -1334 659 -1924
47 -186 113 -480 109 -484 -2 -2 -787 207 -1746 464 l-1743 467 -34 -39 c-218
-247 -648 -803 -631 -817 2 -3 974 -264 2159 -581 1185 -318 2156 -579 2158
-580 6 -7 22 -239 33 -480 12 -281 6 -582 -16 -901 -17 -236 -54 -567 -64
-578 -4 -4 -468 116 -1032 267 -563 151 -1715 460 -2559 686 -844 226 -1549
415 -1566 419 l-30 8 -62 -174 c-84 -234 -247 -769 -238 -780 2 -2 886 -239
4438 -1191 684 -183 848 -230 848 -243 0 -33 -131 -470 -213 -714 -94 -275
-187 -519 -297 -780 -40 -93 -84 -198 -98 -233 -27 -63 -27 -63 -62 -58 -19 4
-1131 300 -2470 659 l-2435 653 -7 -40 c-10 -66 -32 -897 -24 -946 l7 -45
2222 -594 c1222 -327 2237 -600 2254 -606 l33 -10 -105 -193 c-290 -535 -871
-1503 -907 -1510 -7 -1 -758 197 -1668 441 -1207 324 -1656 440 -1658 431 -8
-32 174 -1054 191 -1070 3 -3 573 -158 1267 -344 693 -186 1264 -340 1267
-343 10 -10 -394 -561 -852 -1162 -1034 -1358 -1525 -2043 -1877 -2620 -877
-1436 -1409 -2938 -1592 -4495 -76 -645 -87 -1379 -30 -2015 133 -1495 613
-2937 1431 -4307 1024 -1713 2587 -3289 4626 -4663 190 -127 560 -368 645
-419 7 -4 -31 34 -85 86 -579 554 -926 904 -1309 1320 -2202 2392 -3445 4754
-3739 7103 -44 350 -56 546 -62 947 -6 412 3 656 37 998 148 1472 664 2940
1557 4429 417 694 878 1352 1793 2556 991 1305 1425 1911 1771 2470 938 1515
1502 3148 1653 4785 32 339 40 526 40 920 0 414 -9 600 -45 960 -161 1632
-738 3207 -1712 4670 -135 202 -345 500 -353 500 -2 0 2 -15 10 -32z"/>
<path d="M56385 56154 c-1473 -30 -2869 -224 -4601 -640 -1851 -444 -4112
-1182 -6572 -2143 -190 -74 -386 -141 -600 -205 -663 -199 -1695 -601 -2252
-877 -930 -460 -1299 -867 -1489 -1639 -58 -239 -130 -676 -186 -1145 -9 -71
-41 -321 -70 -555 l-55 -424 11 -290 c6 -160 11 -292 13 -293 1 -2 164 51 362
118 1236 413 2631 794 4114 1123 3103 688 6415 1104 9760 1226 1301 47 2894
47 4180 0 4172 -154 8270 -741 12355 -1770 804 -203 1354 -353 2409 -660 115
-33 210 -59 211 -58 2 2 8 147 14 323 11 310 11 323 -9 425 -283 1417 -1304
2711 -3005 3810 -500 323 -1102 648 -1659 897 -172 76 -1019 397 -1661 630
-3013 1091 -5484 1747 -7555 2007 -478 60 -942 100 -1480 127 -201 9 -1904 20
-2235 13z"/>
<path d="M27155 29749 c-169 -10 -204 -19 -244 -64 -59 -67 -59 -80 -31 -616
27 -521 29 -535 85 -594 45 -48 88 -56 251 -46 185 12 228 34 255 135 11 41 7
311 -8 505 l-6 84 -135 -6 c-74 -3 -136 -8 -138 -10 -3 -2 -1 -43 2 -91 l7
-86 67 0 67 0 8 -161 c4 -88 5 -162 3 -164 -2 -3 -68 -8 -146 -11 l-142 -7 0
24 c0 13 -9 216 -21 450 -13 234 -20 432 -17 441 5 13 37 17 180 22 95 4 185
9 201 12 30 6 32 19 21 133 l-7 61 -56 -1 c-31 -1 -119 -6 -196 -10z m239 -25
c3 -9 6 -44 6 -79 l0 -62 -152 -7 c-84 -4 -177 -9 -205 -12 l-53 -6 1 -57 c1
-119 45 -891 51 -897 4 -3 76 -2 160 2 l153 9 -3 140 c-1 77 -5 159 -8 183
l-5 42 -63 0 -63 0 -7 38 c-3 20 -6 51 -6 69 0 29 4 33 33 37 23 4 158 11 207
11 1 0 7 -108 14 -241 18 -320 7 -376 -84 -421 -39 -20 -63 -23 -190 -25 -139
-3 -146 -2 -179 21 -36 26 -65 83 -75 146 -9 56 -46 770 -46 874 0 100 11 145
42 179 41 43 75 53 207 61 220 14 258 13 265 -5z"/>
<path d="M28338 29575 c-13 -13 -36 -46 -50 -72 -45 -85 -481 -1074 -475
-1079 11 -12 120 -35 128 -27 4 4 35 71 68 148 33 77 61 140 63 140 2 0 69
-16 150 -35 l148 -35 -1 -35 c0 -19 -6 -92 -13 -163 l-12 -127 41 -11 c22 -6
55 -14 73 -19 27 -7 32 -6 32 8 0 9 25 303 55 652 30 349 53 636 51 637 -11
12 -149 43 -187 43 -36 0 -52 -6 -71 -25z m158 -7 l85 -22 -6 -66 c-4 -36 -28
-318 -54 -628 -27 -309 -50 -565 -53 -567 -3 -3 -28 0 -56 6 -48 12 -50 13
-46 43 8 67 24 238 24 265 0 28 0 29 -162 69 -90 23 -166 38 -170 34 -3 -4
-34 -70 -67 -146 -34 -77 -62 -141 -64 -142 -1 -2 -23 2 -49 9 l-46 12 227
510 c125 281 240 533 255 562 18 32 40 58 60 67 38 19 23 20 122 -6z"/>
<path d="M28247 29143 c-70 -158 -125 -289 -123 -291 6 -6 278 -73 281 -70 2
2 16 144 31 316 30 345 32 332 -32 332 l-31 0 -126 -287z m193 232 c0 -37 -37
-466 -45 -531 l-6 -42 -117 30 c-64 16 -118 31 -120 33 -2 2 42 109 98 237 57
128 111 252 121 274 15 36 21 41 43 37 22 -5 26 -11 26 -38z"/>
<path d="M29398 29127 c-19 -29 -42 -64 -52 -79 l-18 -27 86 -57 c50 -33 83
-61 79 -68 -3 -6 -139 -208 -300 -450 -162 -241 -297 -444 -299 -450 -4 -10
113 -93 120 -85 2 2 139 208 305 457 165 248 304 452 307 452 2 0 38 -22 79
-50 40 -27 78 -51 84 -52 13 -4 113 144 103 153 -4 4 -109 74 -233 157 l-227
151 -34 -52z m470 -263 c2 -1 -15 -30 -38 -63 -26 -39 -45 -59 -53 -54 -7 3
-45 29 -85 56 -41 27 -75 47 -76 45 -2 -1 -139 -207 -305 -455 -165 -249 -303
-453 -306 -453 -7 0 -85 52 -85 56 0 2 135 207 300 454 165 247 300 454 300
459 0 5 -36 32 -80 61 -44 29 -80 54 -80 57 0 2 18 31 40 63 l41 60 212 -141
c117 -78 214 -143 215 -145z"/>
<path d="M24520 28569 l-192 -201 63 -64 c35 -35 67 -64 72 -64 5 0 39 32 76
72 l68 72 397 -378 c223 -213 402 -376 410 -373 7 3 31 27 53 54 l41 49 -399
379 -400 378 70 71 c39 39 71 74 71 77 0 3 -31 34 -69 68 l-69 61 -192 -201z
m300 72 c0 -4 -29 -36 -65 -71 -36 -35 -65 -70 -65 -76 0 -9 585 -572 753
-725 l39 -34 -39 -42 -38 -42 -399 381 -400 381 -72 -76 -71 -76 -53 54 -53
54 178 185 177 186 54 -46 c30 -26 54 -49 54 -53z"/>
<path d="M87817 27507 c-21 -89 -78 -317 -127 -507 -1065 -4136 -2840 -6959
-5340 -8492 -1216 -746 -2669 -1204 -4225 -1333 -383 -31 -489 -36 -940 -42
-1010 -13 -1675 41 -3760 302 -1823 229 -2508 284 -3345 272 -510 -8 -840 -30
-1300 -88 -1477 -185 -2854 -652 -4075 -1382 -468 -280 -962 -640 -1410 -1030
-194 -168 -712 -688 -888 -890 -614 -706 -1100 -1435 -1531 -2297 -128 -256
-303 -632 -283 -610 2 3 82 109 177 235 412 548 817 1019 1246 1450 189 190
470 455 482 455 4 0 216 -781 472 -1736 255 -954 469 -1739 475 -1744 13 -10
356 -73 551 -100 178 -25 507 -59 513 -54 3 2 -32 140 -76 307 -45 166 -302
1126 -572 2132 -269 1007 -493 1842 -496 1856 -6 25 1 32 88 93 336 234 803
502 1189 682 190 89 439 197 443 192 3 -2 771 -2867 1338 -4987 l52 -193 54 6
c179 21 909 189 917 211 3 6 -180 702 -406 1546 -226 844 -544 2028 -706 2632
-162 604 -294 1102 -294 1106 0 19 653 168 1012 231 278 48 864 127 873 118 2
-2 294 -1090 650 -2418 721 -2693 674 -2520 683 -2520 14 0 456 236 670 358
206 117 223 129 219 152 -2 14 -272 1030 -602 2258 -329 1228 -595 2235 -591
2239 4 4 260 9 569 11 627 5 1385 -12 1403 -31 6 -7 211 -758 455 -1669 244
-912 446 -1658 449 -1658 17 0 772 631 823 688 18 20 10 52 -319 1279 -185
692 -339 1264 -342 1272 -4 12 9 13 84 7 171 -13 725 -77 1509 -176 1474 -185
1911 -231 2685 -282 255 -17 1133 -17 1380 0 761 52 1397 147 2045 307 1602
395 3007 1121 4220 2181 196 171 649 619 817 809 656 740 1181 1524 1632 2440
838 1698 1330 3714 1470 6020 19 301 30 555 25 555 -2 0 -21 -73 -42 -163z"/>
<path d="M31225 27621 c-16 -4 -46 -16 -65 -25 -59 -30 -676 -668 -710 -735
-24 -49 -26 -120 -4 -167 16 -34 238 -254 256 -254 9 0 120 115 127 132 1 5
-50 60 -115 122 l-119 113 47 54 c26 30 166 175 311 324 l264 270 125 -117
125 -117 69 70 69 71 -120 114 c-150 144 -185 163 -260 145z m88 -26 c18 -9
84 -65 147 -124 l115 -109 -54 -56 -54 -55 -117 109 c-65 61 -124 110 -133
110 -22 0 -637 -636 -637 -659 0 -11 47 -64 114 -128 l115 -108 -55 -57 -54
-57 -114 110 c-131 126 -153 164 -135 232 6 22 21 56 34 75 29 42 607 644 652
678 70 53 123 65 176 39z"/>
<path d="M23831 27497 c-28 -66 -51 -135 -51 -155 0 -33 39 -81 97 -119 132
-89 1005 -595 1012 -587 11 13 41 92 41 108 0 8 -55 46 -122 85 -68 39 -129
75 -137 80 -12 8 -5 35 39 156 52 143 54 146 78 140 24 -6 249 -52 280 -58 16
-2 67 123 55 133 -5 4 -282 62 -618 129 -335 68 -620 125 -632 128 -19 4 -26
-2 -42 -40z m672 -107 c329 -66 600 -120 602 -120 8 0 -34 -95 -44 -98 -5 -2
-76 11 -157 28 -81 17 -149 28 -153 25 -10 -11 -118 -310 -114 -317 2 -4 64
-42 138 -84 74 -42 135 -80 135 -84 0 -14 -30 -80 -37 -80 -3 0 -227 129 -496
288 -486 285 -577 346 -577 391 0 12 14 58 31 102 28 71 34 80 53 75 11 -3
290 -59 619 -126z"/>
<path d="M23961 27359 c-6 -18 -11 -38 -11 -44 0 -18 539 -330 550 -319 16 16
100 258 93 265 -7 5 -595 129 -615 129 -3 0 -11 -14 -17 -31z m337 -53 c145
-30 266 -56 269 -59 6 -6 -7 -49 -49 -158 l-29 -77 -247 144 c-136 80 -254
148 -262 153 -11 7 -12 14 -2 35 9 20 17 25 34 21 13 -3 141 -29 286 -59z"/>
<path d="M31966 26855 c-42 -22 -937 -633 -986 -673 -21 -17 -20 -17 27 -64
l49 -48 134 94 c74 52 138 92 141 90 4 -2 52 -52 107 -112 l101 -109 -94 -129
-95 -128 52 -53 51 -52 17 22 c10 12 185 249 389 526 l372 504 -49 56 c-91
105 -134 120 -216 76z m171 -60 c36 -36 63 -71 60 -78 -5 -14 -711 -973 -733
-997 -12 -13 -19 -10 -51 22 l-36 36 93 125 c51 69 93 128 92 132 -1 11 -223
245 -233 245 -5 0 -68 -41 -140 -91 l-131 -92 -34 35 -35 34 457 315 c251 173
482 329 513 346 83 48 101 45 178 -32z"/>
<path d="M31706 26550 l-259 -180 106 -107 c58 -59 108 -105 110 -103 2 3 88
119 192 258 l188 253 -29 30 c-15 16 -33 29 -38 29 -6 0 -128 -81 -270 -180z
m304 119 c0 -5 -79 -114 -177 -244 l-176 -236 -84 83 c-46 46 -82 89 -81 95 2
7 111 87 242 178 227 156 240 164 258 149 10 -10 18 -21 18 -25z"/>
<path d="M24700 26353 c-74 -13 -349 -62 -610 -109 -261 -46 -486 -87 -498
-89 -23 -6 -24 -7 -20 -116 3 -107 4 -112 31 -134 15 -13 44 -29 65 -35 30 -9
1168 -190 1192 -190 11 0 20 124 10 133 -4 5 -77 19 -161 31 l-154 21 0 155 0
154 155 27 c85 16 155 28 155 28 0 78 -9 151 -18 150 -7 -1 -73 -12 -147 -26z
m137 -97 c-3 -6 -71 -22 -151 -36 -81 -13 -151 -27 -156 -30 -5 -3 -6 -74 -2
-175 l7 -170 153 -21 c85 -12 155 -24 156 -26 6 -6 14 -98 9 -98 -16 0 -1109
171 -1153 181 -35 7 -64 21 -82 39 -27 27 -28 33 -28 119 0 50 1 91 3 91 1 1
281 52 622 114 l620 113 3 -45 c2 -24 1 -50 -1 -56z"/>
<path d="M24030 26106 l-285 -52 -3 -42 c-2 -28 1 -44 10 -47 13 -5 600 -95
618 -95 12 0 13 55 3 193 -6 97 -6 97 -32 96 -14 -1 -154 -25 -311 -53z m322
-88 c2 -68 3 -124 2 -125 0 -3 -481 68 -561 82 -28 5 -33 10 -33 35 0 26 4 29
43 35 95 14 338 56 432 74 55 10 103 19 107 20 3 1 8 -54 10 -121z"/>
<path d="M32603 26186 c-41 -19 -124 -95 -378 -342 -179 -175 -336 -332 -349
-349 -62 -82 -76 -165 -38 -227 11 -18 65 -76 119 -129 76 -75 108 -99 141
-108 51 -14 102 -3 157 35 48 32 395 366 395 379 0 6 -43 53 -95 105 l-95 95
-66 -67 -67 -66 47 -50 46 -49 -118 -111 -118 -111 -100 100 -99 101 330 324
330 324 147 -147 148 -148 65 65 c36 35 65 69 65 75 0 6 -64 75 -143 153 -183
181 -218 197 -324 148z m141 -11 c17 -8 93 -77 169 -153 l137 -137 -55 -55
-55 -55 -144 144 c-142 141 -145 144 -168 129 -48 -33 -658 -641 -658 -657 0
-20 203 -225 218 -220 6 2 67 58 137 123 l126 119 -48 49 -48 48 53 53 52 52
85 -85 85 -85 -195 -186 c-279 -269 -292 -272 -463 -106 -151 147 -167 193
-101 298 43 68 684 690 739 717 53 26 90 28 134 7z"/>
<path d="M25200 24258 c-47 -22 -86 -42 -88 -43 -2 -1 29 -71 68 -156 39 -84
67 -156 63 -159 -5 -4 -44 -23 -88 -43 -44 -19 -195 -88 -335 -153 -140 -64
-283 -130 -318 -145 l-63 -29 -70 147 c-39 81 -72 149 -74 151 -5 5 -152 -56
-172 -71 -13 -9 101 -268 143 -323 49 -66 138 -81 246 -41 139 52 808 370 846
403 22 18 47 49 56 68 30 63 21 107 -51 270 -37 83 -69 154 -72 158 -3 4 -44
-12 -91 -34z m151 -148 c83 -181 79 -238 -23 -308 -51 -35 -804 -385 -863
-401 -59 -16 -93 -14 -135 10 -42 24 -55 44 -134 212 l-55 118 62 30 c34 16
67 29 73 29 6 0 41 -64 77 -142 39 -86 72 -144 81 -146 20 -4 827 368 833 384
2 7 -26 78 -63 158 -37 81 -65 148 -63 150 2 2 33 17 69 33 52 24 67 27 73 16
5 -7 35 -72 68 -143z"/>
<path d="M34579 24242 c-54 -28 -138 -117 -567 -597 -171 -191 -203 -268 -149
-357 30 -51 192 -195 246 -220 101 -47 163 -8 383 235 90 100 167 187 171 193
4 7 -34 48 -96 104 l-102 92 -63 -69 -63 -68 51 -46 50 -46 -111 -122 -111
-121 -56 49 c-171 151 -159 137 -141 157 158 181 594 660 603 661 6 2 79 -58
161 -132 l150 -135 62 67 c34 38 62 73 62 78 1 16 -287 268 -327 287 -53 25
-92 22 -153 -10z m148 -9 c18 -10 95 -74 172 -143 l139 -124 -51 -58 c-43 -48
-53 -55 -66 -45 -9 6 -61 52 -116 102 -157 143 -175 156 -189 148 -28 -16
-626 -689 -626 -704 0 -17 201 -202 225 -207 12 -3 232 228 243 256 2 8 -16
32 -42 55 l-47 42 48 54 48 53 70 -62 c39 -34 79 -71 89 -80 19 -18 15 -23
-152 -207 -215 -238 -272 -273 -359 -225 -48 25 -211 172 -235 210 -28 46 -21
116 18 175 33 50 598 681 647 723 65 55 128 67 184 37z"/>
<path d="M35384 23576 c-57 -25 -112 -85 -362 -395 -300 -371 -306 -378 -332
-430 -57 -109 -33 -174 105 -285 129 -104 151 -116 211 -116 38 0 61 7 95 29
54 35 60 42 241 266 l146 181 -110 88 c-93 74 -111 85 -121 73 -7 -9 -32 -41
-57 -73 l-44 -57 48 -42 c34 -30 46 -46 41 -56 -16 -25 -187 -234 -195 -237
-7 -3 -220 165 -220 174 0 3 129 165 287 360 190 236 291 353 300 350 8 -3 81
-60 162 -126 81 -66 150 -120 153 -120 9 0 119 141 116 150 -5 15 -299 248
-334 265 -39 18 -89 19 -130 1z m137 -29 c20 -12 97 -71 172 -132 l135 -109
-45 -56 c-25 -30 -48 -56 -52 -58 -4 -1 -74 52 -156 118 -82 66 -157 120 -167
120 -10 0 -115 -122 -264 -307 -137 -170 -268 -332 -291 -361 -24 -29 -43 -59
-43 -67 0 -16 216 -195 236 -195 17 0 26 9 140 151 l99 122 -48 41 c-26 23
-47 46 -47 52 0 5 19 31 43 57 l42 48 92 -74 92 -74 -141 -174 c-77 -96 -154
-189 -171 -207 -60 -63 -135 -88 -197 -64 -49 19 -236 179 -255 217 -22 48
-16 100 19 159 32 56 520 662 589 733 83 86 148 104 218 60z"/>
<path d="M25591 23436 c-41 -23 -76 -47 -78 -52 -2 -6 20 -51 48 -100 78 -135
104 -193 94 -203 -19 -19 -769 -420 -776 -415 -4 2 -42 69 -85 148 l-77 144
-81 -43 c-44 -25 -82 -48 -84 -53 -2 -6 32 -74 76 -153 96 -175 126 -204 210
-204 31 0 73 7 92 14 65 26 781 416 828 451 26 20 57 55 70 80 35 68 25 109
-63 273 -41 76 -75 143 -75 148 0 16 -24 8 -99 -35z m156 -121 c81 -150 88
-170 78 -221 -13 -73 -71 -113 -469 -328 -383 -207 -462 -245 -509 -246 -38 0
-87 22 -113 51 -17 19 -95 155 -152 265 -10 19 -5 24 58 57 l68 37 75 -137
c40 -75 81 -141 89 -146 10 -7 117 46 399 198 211 114 392 216 403 225 18 17
16 22 -58 158 -42 77 -76 143 -76 146 0 5 121 76 130 76 3 0 37 -61 77 -135z"/>
<path d="M36101 22989 c-30 -43 -53 -80 -50 -82 2 -2 39 -28 82 -57 43 -30 76
-59 73 -65 -2 -6 -140 -206 -306 -445 -166 -239 -304 -440 -307 -446 -2 -6 23
-29 55 -52 l59 -41 312 450 c172 247 316 449 321 449 5 0 44 -25 88 -54 l79
-55 52 76 c44 62 51 78 39 88 -7 7 -83 61 -168 120 -85 59 -182 127 -215 150
l-60 43 -54 -79z m268 -95 c108 -75 200 -140 205 -145 9 -8 -5 -35 -51 -97
l-24 -32 -79 55 c-43 30 -82 55 -87 55 -6 -1 -576 -815 -622 -888 -6 -11 -17
-8 -49 15 -23 15 -41 32 -42 36 0 5 136 205 303 445 167 241 307 442 311 449
4 8 -22 32 -74 68 -44 31 -80 59 -80 63 0 12 74 112 83 112 5 0 98 -61 206
-136z"/>
<path d="M26001 22555 c-53 -25 -438 -262 -445 -274 -4 -8 131 -225 143 -229
9 -3 151 84 151 93 0 2 -14 28 -31 56 -27 43 -30 53 -18 63 34 31 263 166 269
159 16 -19 140 -224 140 -232 0 -8 -739 -475 -770 -485 -11 -4 -45 44 -123
169 l-108 174 -83 -51 -84 -52 50 -79 c187 -299 172 -277 218 -306 43 -26 104
-27 167 -3 65 25 799 485 846 530 51 49 67 82 67 138 0 35 -9 63 -31 103 -69
122 -132 211 -163 231 -47 29 -126 27 -195 -5z m169 -7 c38 -20 56 -40 117
-138 40 -63 77 -131 83 -150 15 -52 -2 -98 -57 -152 -48 -46 -732 -480 -828
-525 -60 -28 -129 -30 -167 -5 -31 21 -50 44 -105 132 -22 36 -63 102 -91 147
l-51 82 66 41 c51 33 68 39 74 29 58 -101 199 -315 211 -322 13 -9 98 41 413
237 350 219 396 251 393 270 -6 30 -140 244 -157 251 -11 4 -271 -146 -305
-176 -5 -4 6 -31 23 -59 18 -29 31 -56 29 -61 -2 -5 -28 -24 -58 -43 -49 -31
-55 -33 -66 -18 -55 81 -114 186 -107 192 35 31 416 258 457 272 66 23 73 22
126 -4z"/>
<path d="M38413 21834 c-31 -16 -67 -61 -91 -118 -16 -35 -199 -797 -212 -883
-17 -103 10 -176 78 -216 25 -15 344 -100 348 -94 10 17 43 182 37 187 -4 4
-79 24 -166 45 -132 31 -157 39 -153 53 2 10 46 190 96 402 50 212 96 401 101
421 l9 36 143 -34 c206 -50 187 -55 213 54 l21 92 -151 35 c-165 40 -224 44
-273 20z m255 -35 c97 -22 142 -37 142 -46 0 -8 -7 -43 -16 -79 -13 -51 -20
-63 -33 -60 -51 16 -276 66 -296 66 -20 0 -25 -8 -35 -52 -7 -29 -55 -228
-106 -441 -51 -214 -91 -394 -88 -401 3 -7 77 -29 165 -50 122 -29 159 -41
155 -51 -3 -8 -11 -41 -18 -75 -7 -36 -17 -60 -25 -60 -37 0 -301 72 -322 88
-93 69 -91 104 38 636 120 494 133 526 230 557 31 9 27 10 209 -32z"/>
<path d="M39156 21722 c-9 -32 -28 -163 -24 -167 2 -2 45 -10 97 -19 51 -8 95
-17 97 -19 2 -2 -36 -247 -85 -543 -49 -296 -87 -540 -86 -542 5 -6 135 -25
140 -20 3 2 44 243 91 534 48 291 91 533 95 538 5 5 46 3 101 -6 51 -9 94 -15
96 -13 4 3 32 179 29 182 -2 1 -113 20 -247 42 -135 23 -257 43 -272 46 -19 3
-28 0 -32 -13z m284 -48 c129 -20 238 -39 241 -43 4 -3 2 -36 -4 -73 -10 -67
-11 -68 -41 -67 -17 0 -63 6 -103 13 l-71 13 -6 -31 c-3 -17 -42 -258 -87
-536 -45 -278 -85 -508 -89 -513 -3 -4 -27 -4 -53 -1 -38 6 -47 10 -47 27 0
11 38 253 85 539 47 285 85 522 85 527 0 4 -40 14 -89 21 -49 7 -94 16 -100
20 -9 5 -9 25 0 79 10 57 15 71 28 67 9 -3 122 -21 251 -42z"/>
<path d="M40293 21525 c-12 -8 -31 -30 -42 -49 -17 -27 -433 -1074 -448 -1127
-4 -13 6 -19 47 -28 87 -19 80 -25 140 135 30 80 57 147 60 149 3 2 48 -5 100
-16 52 -10 119 -24 149 -30 l54 -11 -6 -162 -7 -163 71 -12 c39 -7 71 -11 73
-10 2 3 40 957 49 1243 l2 60 -75 18 c-93 21 -139 22 -167 3z m158 -21 l71
-16 -6 -112 c-7 -123 -46 -1078 -46 -1127 0 -31 -1 -31 -37 -25 -81 15 -75 -1
-67 179 l7 162 -168 33 c-92 18 -168 32 -170 30 -1 -2 -26 -66 -55 -143 -29
-77 -56 -144 -60 -148 -10 -12 -90 4 -90 18 0 16 401 1038 428 1092 39 76 70
85 193 57z"/>
<path d="M40311 21348 c-5 -12 -57 -146 -115 -297 -58 -151 -106 -275 -106
-276 0 -6 281 -57 286 -52 5 5 36 628 31 633 -1 1 -21 5 -44 9 -39 6 -44 5
-52 -17z m67 -6 c10 -7 10 -65 1 -298 -7 -159 -15 -292 -18 -296 -7 -9 -221
30 -234 42 -4 4 40 131 99 283 108 279 115 292 152 269z"/>
<path d="M42452 20963 c-39 -19 -74 -61 -101 -124 -11 -24 -79 -224 -151 -444
-115 -349 -132 -409 -133 -470 -2 -82 17 -125 66 -155 26 -16 319 -120 338
-120 7 0 64 178 58 183 -2 3 -75 28 -162 57 -120 39 -157 56 -153 66 3 8 65
196 137 417 73 221 136 406 140 411 7 7 220 -54 314 -90 6 -3 24 38 41 89 l31
94 -158 51 c-168 55 -214 61 -267 35z m247 -49 c80 -25 148 -47 149 -49 8 -7
-43 -145 -53 -145 -6 0 -71 20 -145 45 -142 48 -165 52 -176 33 -4 -6 -69
-201 -145 -432 -96 -293 -134 -424 -127 -433 5 -6 73 -33 151 -59 78 -25 145
-50 150 -53 6 -6 -8 -57 -38 -138 -3 -8 -51 4 -157 39 -126 42 -159 57 -185
85 -37 38 -48 83 -39 148 12 78 283 887 311 928 33 48 80 77 124 77 19 0 100
-21 180 -46z"/>
<path d="M26925 20393 c-236 -262 -432 -480 -433 -485 -4 -9 45 -75 97 -130
44 -48 82 -55 146 -30 39 14 1047 562 1064 578 5 4 -20 41 -56 81 l-28 32
-139 -80 c-112 -64 -142 -77 -151 -67 -7 7 -51 61 -99 121 l-88 107 106 117
c58 64 106 121 106 126 0 11 -79 107 -88 107 -4 0 -200 -214 -437 -477z m473
408 l32 -39 -103 -112 c-56 -62 -103 -118 -105 -125 -4 -15 196 -265 212 -265
5 0 70 34 145 76 l135 76 28 -33 c15 -19 28 -37 28 -40 0 -9 -969 -542 -1036
-570 -32 -14 -61 -19 -76 -16 -29 8 -71 48 -115 110 l-30 42 421 467 c231 257
424 468 427 468 3 0 20 -18 37 -39z"/>
<path d="M26892 20174 c-227 -250 -223 -243 -173 -288 20 -18 24 -17 296 134
151 84 275 157 275 162 0 10 -172 227 -180 227 -3 0 -101 -106 -218 -235z
m307 96 c68 -83 69 -85 48 -97 -12 -7 -130 -72 -262 -146 -220 -123 -241 -133
-257 -119 -10 8 -18 19 -18 24 0 5 89 108 198 227 154 171 200 216 210 207 7
-7 43 -50 81 -96z"/>
<path d="M43370 20612 c-19 -10 -51 -43 -71 -73 -20 -30 -112 -236 -204 -459
-145 -349 -169 -414 -173 -471 -6 -81 13 -127 66 -161 54 -35 313 -141 322
-131 17 19 71 166 63 173 -4 4 -71 33 -148 65 -77 31 -143 60 -147 64 -6 5
322 815 336 828 1 2 72 -26 157 -61 85 -35 157 -61 160 -58 10 12 73 172 68
175 -2 2 -67 30 -144 62 -162 67 -228 78 -285 47z m228 -46 c59 -25 124 -52
144 -60 l37 -16 -26 -63 c-14 -34 -30 -66 -33 -70 -4 -5 -74 19 -155 53 -81
33 -152 59 -157 58 -10 -4 -78 -162 -280 -652 -76 -183 -81 -199 -65 -211 10
-7 80 -38 156 -70 l139 -57 -30 -73 -30 -73 -106 44 c-176 73 -209 92 -233
130 -18 30 -21 45 -16 102 4 58 28 123 175 475 93 224 182 426 198 449 64 92
124 99 282 34z"/>
<path d="M44197 20268 c-13 -24 -34 -61 -45 -83 l-20 -40 89 -48 c49 -27 89
-50 89 -52 0 -2 -117 -220 -260 -484 -143 -265 -260 -482 -260 -484 0 -6 129
-71 132 -67 3 3 118 217 257 475 140 259 257 474 261 479 5 5 48 -12 96 -38
67 -36 89 -44 96 -34 29 43 78 152 71 158 -8 7 -473 260 -479 260 -1 0 -13
-19 -27 -42z m268 -110 l225 -121 -32 -56 c-17 -31 -34 -60 -39 -65 -4 -4 -46
13 -94 39 -47 26 -88 46 -90 44 -2 -2 -119 -218 -260 -479 -141 -261 -259
-477 -261 -479 -3 -3 -25 5 -50 17 -31 16 -44 27 -40 37 3 8 120 227 260 487
l256 472 -78 43 c-42 23 -83 45 -90 50 -9 6 -5 23 20 70 18 35 36 63 41 63 4
0 108 -55 232 -122z"/>
<path d="M27971 19933 c-28 -16 -136 -104 -240 -198 l-189 -169 71 -79 c40
-44 82 -91 93 -105 l21 -26 67 58 c36 32 66 63 66 69 0 6 -19 31 -42 54 -26
26 -38 46 -33 52 114 103 236 211 239 211 7 0 186 -202 186 -209 0 -7 -610
-560 -665 -603 -21 -16 -24 -13 -159 138 l-138 154 -75 -67 -74 -66 34 -36
c18 -20 78 -85 132 -146 128 -142 151 -159 220 -159 43 0 63 6 108 34 50 31
477 407 665 584 119 113 150 187 114 267 -25 56 -182 232 -226 253 -52 25
-116 20 -175 -11z m149 1 c53 -21 225 -211 242 -266 16 -53 -2 -104 -58 -167
-25 -28 -187 -178 -360 -333 -309 -278 -401 -348 -458 -348 -46 0 -107 47
-207 160 -56 63 -112 127 -126 141 l-23 26 58 51 59 51 105 -117 c58 -64 119
-132 137 -151 l31 -33 28 18 c60 40 682 608 682 624 0 20 -187 230 -205 230
-10 0 -155 -123 -263 -225 -11 -9 -4 -21 33 -62 l45 -51 -55 -47 -55 -47 -47
53 c-27 29 -62 69 -79 89 l-31 35 176 158 c184 165 218 191 279 213 47 17 44
17 92 -2z"/>
<path d="M28689 19162 c-48 -27 -409 -371 -409 -388 0 -5 43 -52 95 -104 l95
-95 65 65 65 64 -48 49 -47 49 120 114 119 115 100 -101 101 -100 -225 -226
c-124 -124 -273 -270 -331 -325 l-107 -99 -145 147 -146 148 -70 -69 -71 -70
133 -135 c72 -75 149 -148 171 -163 49 -35 111 -37 175 -6 56 27 681 633 737
714 46 66 57 140 29 195 -25 47 -182 207 -227 230 -55 28 -123 25 -179 -9z
m147 3 c39 -16 155 -123 215 -198 32 -40 39 -57 39 -93 0 -25 -9 -63 -21 -87
-27 -55 -664 -686 -734 -727 -55 -33 -113 -39 -154 -16 -14 8 -87 76 -163 152
l-138 139 56 55 55 55 140 -142 c76 -79 146 -143 154 -143 21 0 675 649 675
669 0 18 -200 221 -217 221 -6 0 -68 -56 -139 -124 l-129 -124 48 -49 47 -49
-50 -49 -50 -49 -84 83 -85 84 175 170 c200 194 213 205 263 223 47 17 55 17
97 -1z"/>
<path d="M46159 18790 c-35 -29 -68 -55 -73 -60 -5 -5 17 -41 53 -86 33 -42
61 -79 61 -83 -1 -3 -188 -154 -416 -335 -228 -181 -419 -336 -426 -343 -8
-10 0 -26 32 -68 23 -30 44 -55 46 -55 2 0 195 153 430 340 234 187 429 340
433 340 3 -1 32 -35 65 -76 32 -41 62 -74 67 -72 15 5 138 103 139 110 0 6
-304 393 -334 426 -10 10 -25 3 -77 -38z m225 -182 c86 -108 156 -199 156
-201 0 -7 -101 -87 -110 -87 -4 0 -34 34 -66 75 -32 41 -61 75 -64 75 -3 0
-183 -143 -400 -316 -217 -174 -410 -328 -428 -342 l-33 -25 -29 34 c-16 19
-29 39 -30 46 0 8 691 568 839 679 13 10 6 22 -43 84 -32 40 -59 78 -60 85 -1
13 94 96 106 92 4 -1 77 -90 162 -199z"/>
<path d="M46767 17739 c-63 -15 -836 -350 -886 -384 -61 -42 -94 -104 -87
-166 3 -33 111 -309 131 -337 5 -6 175 72 175 80 0 5 -27 72 -60 150 -33 77
-60 145 -60 151 0 14 805 361 818 353 5 -3 37 -72 72 -154 l63 -150 81 35 c45
19 85 38 89 42 10 10 -102 278 -135 323 -40 56 -114 77 -201 57z m133 -27 c19
-9 44 -31 56 -49 19 -28 118 -249 126 -281 2 -8 -24 -25 -66 -43 -38 -16 -70
-28 -72 -26 -2 1 -30 65 -63 142 -33 77 -66 144 -75 150 -11 7 -126 -39 -430
-169 -346 -148 -416 -181 -416 -198 0 -11 27 -83 60 -160 33 -78 59 -142 58
-143 -14 -9 -139 -57 -142 -54 -2 2 -32 69 -66 149 -67 157 -72 197 -35 254
33 49 98 83 466 242 510 220 524 224 599 186z"/>
<path d="M30149 17228 c-188 -222 -348 -409 -355 -417 -11 -12 -25 -4 -91 52
l-78 67 -20 -24 c-11 -13 -39 -46 -62 -73 l-41 -49 211 -181 212 -182 53 57
c82 89 82 82 -3 153 -41 35 -75 66 -75 69 0 3 160 192 355 420 l355 415 -52
48 c-28 26 -55 47 -59 47 -4 0 -162 -181 -350 -402z m395 340 l37 -33 -353
-414 c-194 -227 -354 -417 -356 -421 -1 -3 31 -35 73 -70 41 -34 75 -66 75
-69 0 -3 -22 -30 -48 -58 l-47 -53 -196 168 c-165 140 -195 170 -185 183 6 8
27 35 47 58 l37 42 77 -67 78 -68 21 25 c11 13 171 201 355 417 184 215 337
392 341 392 4 0 23 -15 44 -32z"/>
<path d="M41095 17319 c-174 -24 -333 -76 -470 -154 -398 -227 -635 -634 -635
-1090 0 -547 343 -1020 864 -1190 143 -46 231 -60 391 -59 338 0 636 124 875
364 164 163 273 354 332 577 30 111 31 129 32 303 0 198 -14 288 -70 438 -156
414 -513 715 -945 797 -105 20 -285 26 -374 14z"/>
<path d="M30856 16653 c-179 -225 -332 -417 -340 -428 -14 -19 -17 -18 -96 44
-45 34 -83 61 -85 59 -32 -32 -113 -144 -107 -149 49 -45 419 -332 427 -333
13 -1 115 119 115 135 0 4 -34 35 -75 69 -47 38 -73 66 -68 73 4 7 157 200
340 429 183 229 333 419 333 421 0 6 -105 87 -113 87 -3 0 -152 -183 -331
-407z m383 347 c25 -21 32 -33 24 -42 -5 -7 -160 -201 -343 -431 -183 -230
-331 -419 -329 -421 2 -1 39 -30 81 -65 l78 -62 -47 -58 -47 -59 -200 161
c-111 88 -203 161 -205 163 -4 4 82 113 90 113 4 1 41 -27 84 -61 76 -61 78
-62 94 -42 9 11 162 203 340 427 178 224 329 407 335 407 6 -1 26 -14 45 -30z"/>
<path d="M31685 16557 c-30 -41 -55 -76 -55 -79 0 -3 59 -50 130 -103 72 -53
130 -101 130 -106 0 -4 -119 -168 -265 -364 l-265 -355 -134 100 c-73 55 -136
100 -139 100 -14 0 -119 -152 -111 -160 33 -29 262 -194 282 -201 68 -26 149
0 213 68 63 66 543 716 564 763 28 63 27 137 -4 181 -18 27 -218 187 -277 222
-9 5 -30 -15 -69 -66z m188 -46 c64 -49 127 -101 138 -116 34 -43 36 -105 6
-167 -24 -49 -485 -675 -546 -742 -83 -91 -162 -111 -238 -58 -128 87 -232
169 -228 179 6 17 78 113 85 113 3 0 63 -42 133 -94 75 -55 134 -93 143 -89
19 7 537 703 542 729 3 17 -20 39 -122 115 -69 51 -126 97 -126 102 0 11 81
117 89 117 3 0 59 -40 124 -89z"/>
<path d="M46011 16505 c3 -36 8 -67 10 -69 2 -2 73 -8 158 -14 84 -6 156 -13
158 -16 7 -7 35 -286 30 -299 -2 -6 -70 -27 -153 -46 l-149 -36 -3 -35 c-1
-19 1 -53 5 -76 l8 -40 630 160 630 161 -4 85 c-5 143 -28 171 -146 190 -58 9
-1120 100 -1167 100 -11 0 -13 -12 -7 -65z m588 0 c300 -25 570 -50 599 -56
85 -17 102 -39 113 -144 5 -48 7 -90 5 -92 -9 -10 -1218 -313 -1227 -308 -5 4
-9 28 -9 54 l0 49 153 37 c83 21 153 39 155 41 2 1 -4 73 -12 160 -9 87 -16
163 -16 169 0 8 -32 14 -92 19 -51 3 -126 9 -165 13 l-73 6 0 48 c0 30 4 49
11 49 7 0 258 -20 558 -45z"/>
<path d="M46510 16412 c2 -34 30 -285 32 -288 2 -1 141 32 308 74 l305 77 -1
38 c-1 21 -5 42 -10 47 -5 4 -135 17 -289 29 -154 12 -295 23 -312 25 -18 3
-33 2 -33 -2z m354 -42 c142 -11 262 -23 267 -26 5 -3 9 -16 9 -29 0 -20 -7
-26 -37 -34 -142 -38 -525 -131 -536 -131 -10 0 -16 30 -24 118 -6 64 -9 120
-7 124 3 4 19 5 37 2 17 -2 148 -13 291 -24z"/>
<path d="M33473 15324 c-18 -9 -48 -33 -66 -53 -30 -33 -282 -416 -293 -445
-3 -8 36 -40 104 -85 61 -39 114 -71 119 -71 4 0 29 34 55 74 l46 74 -54 36
c-30 20 -54 38 -54 41 0 7 150 237 167 257 13 15 24 11 125 -54 60 -39 112
-77 115 -83 7 -19 -487 -777 -502 -771 -7 2 -82 49 -167 103 -84 55 -158 102
-165 106 -13 8 -118 -152 -106 -163 4 -4 84 -56 176 -115 180 -115 219 -129
289 -106 19 6 55 33 80 59 48 50 505 749 538 824 33 74 35 120 10 172 -18 39
-39 57 -137 122 -63 41 -126 79 -140 85 -37 14 -104 10 -140 -7z m152 -22 c17
-8 75 -45 131 -83 135 -90 156 -132 116 -236 -23 -61 -483 -773 -536 -831 -22
-24 -52 -50 -67 -58 -36 -18 -92 -18 -129 1 -44 23 -320 204 -320 210 0 4 26
46 77 124 1 2 77 -45 169 -103 91 -59 173 -106 181 -104 21 4 513 766 513 793
-1 15 -34 41 -126 99 -123 78 -126 79 -144 60 -21 -21 -193 -285 -188 -289 2
-1 26 -17 53 -35 28 -18 51 -34 53 -36 6 -4 -71 -114 -79 -114 -5 0 -51 27
-103 61 l-95 60 56 87 c231 358 251 383 319 407 42 15 71 11 119 -13z"/>
<path d="M34297 14798 c-20 -49 -444 -1087 -463 -1134 -3 -6 30 -34 74 -62 87
-58 130 -66 184 -34 28 15 814 899 824 925 3 9 -55 50 -106 75 -3 1 -52 -52
-109 -118 -57 -66 -106 -120 -110 -120 -6 0 -250 145 -259 154 -2 2 22 66 54
142 31 77 58 144 61 150 3 8 -106 84 -122 84 -1 0 -14 -28 -28 -62z m86 6 l44
-27 -59 -139 c-32 -77 -58 -145 -58 -152 0 -9 198 -138 282 -183 4 -2 52 50
108 114 56 65 105 119 109 121 10 4 81 -38 80 -46 0 -4 -177 -207 -392 -451
-257 -292 -404 -451 -428 -463 -43 -22 -63 -17 -152 40 -45 28 -57 42 -54 57
2 11 107 270 232 575 125 305 229 561 232 568 7 16 5 16 56 -14z"/>
<path d="M34231 14308 c-5 -13 -59 -144 -120 -292 -61 -148 -110 -270 -109
-271 41 -28 55 -35 69 -35 14 0 434 469 427 475 -19 16 -240 145 -248 145 -6
0 -14 -10 -19 -22z m132 -63 c53 -33 97 -63 97 -68 0 -10 -380 -447 -389 -447
-4 0 -16 6 -26 14 -18 13 -14 26 94 290 63 151 116 274 120 272 3 -1 50 -29
104 -61z"/>
<path d="M35215 14308 c-3 -7 -105 -282 -229 -610 l-223 -598 74 -46 c95 -59
139 -66 191 -31 20 15 55 48 78 74 140 166 716 866 719 876 3 7 -21 26 -54 44
l-58 31 -99 -123 c-55 -68 -103 -124 -107 -125 -6 0 -252 135 -266 146 -2 2
22 72 54 154 31 83 56 152 54 154 -13 9 -118 66 -123 66 -4 0 -9 -6 -11 -12z
m65 -38 c22 -11 40 -26 40 -34 0 -7 -24 -77 -54 -155 l-54 -141 41 -24 c184
-106 261 -146 267 -139 6 7 189 232 196 241 2 3 46 -19 73 -37 11 -7 -39 -73
-225 -298 -556 -672 -548 -663 -606 -663 -22 0 -168 79 -168 91 0 3 97 264
215 580 118 316 217 580 220 587 6 16 9 16 55 -8z"/>
<path d="M35156 13792 c-6 -11 -215 -566 -218 -581 -4 -19 57 -55 76 -44 18
10 396 470 396 482 0 12 -249 151 -254 143z m176 -113 l57 -31 -67 -82 c-37
-45 -123 -150 -191 -234 -69 -83 -127 -152 -130 -152 -3 0 -15 7 -25 15 -19
15 -17 23 79 278 54 144 102 270 107 280 8 16 13 14 61 -13 29 -17 78 -44 109
-61z"/>
<path d="M45767 14222 c-14 -37 -22 -70 -19 -73 4 -3 234 -90 511 -193 278
-102 507 -188 509 -191 5 -4 -1 -20 -41 -126 l-25 -67 86 -31 c47 -17 89 -28
93 -23 9 9 189 494 189 508 0 8 -140 66 -166 68 -4 1 -23 -41 -42 -91 -19 -51
-38 -93 -42 -93 -3 0 -195 70 -426 156 -230 86 -460 171 -511 189 l-91 34 -25
-67z m553 -150 c267 -99 492 -183 501 -187 13 -5 23 12 49 82 18 48 36 92 40
96 4 4 36 -3 71 -16 51 -19 63 -28 61 -43 -3 -15 -127 -353 -163 -445 l-10
-26 -67 24 c-37 13 -68 26 -70 27 -1 2 13 45 32 97 20 51 34 94 33 96 -2 1
-230 87 -508 189 -277 103 -508 190 -513 195 -4 4 0 28 9 54 13 33 23 45 34
42 9 -2 234 -85 501 -185z"/>
<path d="M45462 13569 c-35 -17 -62 -49 -143 -162 -78 -111 -97 -144 -87 -153
7 -6 43 -32 80 -58 l66 -47 92 131 c51 73 98 134 105 136 19 8 720 -494 719
-514 0 -9 -39 -72 -87 -139 -48 -67 -87 -126 -87 -131 0 -15 151 -115 160
-106 4 5 49 69 100 143 83 119 94 139 98 186 5 63 -18 115 -75 166 -54 48
-709 512 -761 538 -65 33 -128 37 -180 10z m176 -31 c85 -45 716 -498 764
-549 57 -60 73 -106 54 -159 -12 -35 -166 -263 -186 -275 -6 -3 -36 13 -69 36
l-60 42 32 46 c17 25 60 86 94 135 43 60 60 93 55 103 -16 28 -726 524 -746
521 -18 -3 -50 -44 -191 -241 -12 -17 -17 -16 -74 25 -33 24 -61 45 -61 48 0
3 42 63 93 134 104 145 135 170 205 163 24 -3 64 -16 90 -29z"/>
<path d="M37180 13267 c0 -2 -83 -281 -184 -622 -120 -403 -182 -623 -176
-630 6 -7 46 -29 90 -49 98 -46 131 -44 186 12 37 38 714 977 714 990 0 11
-110 63 -119 58 -4 -3 -47 -62 -95 -131 -48 -69 -91 -125 -95 -125 -4 0 -69
29 -143 65 l-136 64 48 156 48 156 -65 29 c-65 30 -73 33 -73 27z m110 -73 c0
-6 -79 -270 -87 -292 -5 -13 295 -164 309 -156 4 3 44 57 89 122 45 64 86 121
90 126 12 13 91 -24 85 -39 -10 -26 -658 -924 -691 -958 -54 -56 -75 -57 -170
-9 l-83 41 64 213 c35 117 116 391 181 609 l118 397 47 -24 c27 -13 48 -27 48
-30z"/>
<path d="M37065 12448 c-48 -161 -90 -298 -92 -305 -6 -15 59 -48 79 -41 15 6
372 507 366 514 -7 7 -222 111 -244 118 -19 6 -26 -13 -109 -286z m219 212
c58 -27 106 -51 106 -54 0 -12 -343 -486 -351 -486 -6 0 -18 4 -28 10 -17 9
-12 30 67 295 47 157 89 285 93 285 4 0 55 -22 113 -50z"/>
<path d="M44863 12903 c-30 -17 -273 -213 -273 -220 0 -2 28 -37 62 -78 61
-73 63 -74 83 -57 11 10 63 54 115 97 52 43 102 85 111 92 14 12 49 -25 298
-322 155 -184 283 -340 286 -347 2 -7 -52 -60 -121 -116 -68 -57 -124 -107
-124 -111 0 -12 111 -141 122 -141 5 0 66 48 135 107 96 81 130 117 145 151
25 56 19 108 -21 177 -29 50 -493 608 -579 698 -81 82 -169 108 -239 70z m146
-22 c48 -25 93 -74 391 -429 268 -320 304 -373 297 -439 -6 -60 -22 -79 -156
-192 l-119 -100 -46 53 c-25 30 -46 58 -46 63 0 5 54 55 120 111 66 56 120
108 120 116 0 15 -537 660 -575 690 -22 18 -26 18 -42 4 -44 -37 -210 -175
-223 -185 -13 -10 -24 -2 -64 48 -27 33 -47 61 -45 63 2 1 47 39 99 83 168
142 205 157 289 114z"/>
<path d="M38105 12739 c-20 -50 -36 -91 -34 -93 2 -1 69 -29 149 -61 80 -32
149 -62 154 -66 8 -7 -306 -801 -326 -823 -5 -6 -68 14 -160 52 -83 34 -155
59 -159 55 -16 -17 -70 -166 -62 -174 16 -14 285 -119 323 -125 83 -13 157 43
210 160 15 34 96 231 180 438 140 349 152 381 152 442 0 78 -22 121 -79 153
-31 17 -185 83 -289 123 -20 8 -25 1 -59 -81z m192 6 c163 -67 186 -82 209
-140 14 -37 15 -54 6 -98 -10 -50 -288 -748 -339 -852 -42 -86 -101 -135 -163
-135 -25 0 -266 90 -315 118 -10 5 -8 20 12 67 14 33 29 64 33 69 5 5 67 -15
150 -48 77 -32 148 -56 158 -54 12 2 64 119 184 413 92 226 166 419 165 430
-2 16 -33 33 -149 80 -82 33 -148 65 -148 72 0 14 51 133 57 133 2 0 65 -25
140 -55z"/>
<path d="M39166 12431 c-3 -4 -82 -239 -176 -523 l-170 -517 -87 30 c-48 16
-92 29 -99 29 -12 0 -73 -165 -63 -173 2 -2 117 -42 254 -87 138 -46 255 -85
260 -87 12 -4 69 162 61 175 -2 4 -46 21 -96 37 -50 16 -89 34 -87 39 28 76
337 1017 337 1028 0 15 -127 62 -134 49z m68 -37 c26 -9 45 -21 43 -28 -13
-34 -337 -1025 -337 -1029 0 -3 43 -20 96 -37 58 -20 94 -37 91 -44 -2 -6 -13
-37 -23 -68 -10 -32 -22 -58 -28 -58 -16 0 -470 151 -479 159 -6 6 28 126 39
140 1 2 45 -11 95 -28 51 -17 96 -28 100 -23 3 4 82 234 174 512 92 278 170
508 172 513 5 9 2 10 57 -9z"/>
<path d="M42933 12006 c-83 -17 -154 -34 -158 -37 -5 -6 28 -176 37 -184 2 -2
75 11 163 30 88 18 163 30 166 27 5 -6 175 -807 182 -861 1 -11 -40 -23 -163
-49 -91 -19 -166 -35 -167 -36 -2 -2 38 -180 42 -185 3 -2 77 11 166 30 224
46 261 74 267 202 3 61 -11 141 -86 502 -50 237 -97 447 -106 467 -34 79 -103
130 -171 127 -11 -1 -88 -15 -172 -33z m224 3 c38 -14 71 -46 95 -93 29 -57
198 -873 198 -957 0 -75 -22 -120 -76 -151 -33 -19 -310 -82 -324 -73 -12 8
-34 135 -24 145 5 4 70 20 144 35 154 31 170 37 170 68 -1 37 -177 868 -186
877 -8 8 -248 -35 -315 -56 -13 -3 -19 10 -32 73 -8 43 -14 79 -14 79 6 5 287
62 309 63 15 1 39 -4 55 -10z"/>
<path d="M40940 11929 c0 -83 68 -1241 73 -1246 3 -2 46 -9 96 -16 118 -14
148 -2 184 75 24 52 343 1166 336 1172 -2 2 -33 7 -69 10 l-66 7 -38 -145
c-21 -79 -42 -150 -46 -156 -6 -10 -39 -9 -148 1 -78 7 -146 15 -152 19 -7 4
-15 68 -20 159 -5 84 -11 156 -15 159 -3 3 -35 8 -70 10 l-65 4 0 -53z m133
-134 c4 -87 9 -160 10 -161 3 -4 294 -34 321 -34 20 0 26 15 60 144 21 79 42
150 46 156 5 9 22 11 53 6 l45 -7 -20 -72 c-169 -604 -294 -1032 -313 -1074
-13 -28 -33 -57 -46 -63 -30 -16 -180 -5 -194 14 -6 8 -25 270 -43 607 -18
327 -35 608 -37 624 l-5 30 57 -5 58 -5 8 -160z"/>
<path d="M41090 11462 c0 -36 33 -617 35 -620 1 -2 22 -4 45 -5 l43 -2 85 303
c46 166 83 305 80 307 -2 2 -49 9 -104 15 -54 5 -118 12 -141 15 -36 4 -43 2
-43 -13z m156 -18 c51 -3 97 -9 102 -13 8 -4 2 -39 -18 -106 -15 -55 -52 -184
-80 -287 -49 -175 -54 -188 -76 -188 -12 0 -25 4 -29 9 -5 9 -35 484 -35 565
0 35 2 38 23 33 12 -3 63 -9 113 -13z"/>
<path d="M42138 11923 l-38 -4 5 -57 c3 -31 12 -257 20 -502 8 -245 17 -466
19 -492 l3 -48 -36 0 c-20 0 -67 -3 -105 -7 l-69 -6 7 -90 c3 -50 7 -91 9 -92
1 -1 126 3 277 9 l275 11 -1 28 c0 15 -1 56 -2 92 l-2 65 -105 0 -105 0 0 53
c0 28 -9 275 -20 547 -11 272 -20 496 -20 498 0 3 -62 0 -112 -5z m96 -55 c3
-24 13 -257 21 -518 9 -261 18 -490 21 -507 l5 -33 98 0 98 0 7 -37 c3 -21 6
-54 6 -74 l0 -37 -177 -6 c-98 -3 -218 -9 -266 -12 l-88 -6 3 78 3 79 98 3 97
3 0 65 c0 74 -26 776 -35 937 l-6 107 55 0 55 0 5 -42z"/>
</g>
</svg>
